<?xml version="1.0" encoding="UTF-8" standalone="no"?>
<!-- Created with Inkscape (http://www.inkscape.org/) -->

<svg
   width="157.68414mm"
   height="112.59857mm"
   viewBox="0 0 157.68414 112.59857"
   version="1.1"
   id="svg1"
   xml:space="preserve"
   xmlns="http://www.w3.org/2000/svg"
   xmlns:svg="http://www.w3.org/2000/svg"><defs
     id="defs1" /><g
     id="layer1"
     transform="translate(-28.531136,-68.867893)"><path
       style="fill:#000000"
       d="m 43.48341,181.35924 c -0.61789,-0.22718 -1.60007,-1.19672 -2.00951,-1.98365 -0.84179,-1.61789 -0.1287,-3.88351 1.49666,-4.7552 0.82355,-0.44167 1.6966,-0.48346 10.09987,-0.48346 h 9.1984 l -0.002,-8.53282 -0.002,-8.53281 -2.04869,-0.61206 c -2.49355,-0.74496 -2.46366,-0.74395 -4.42994,-0.15007 -2.20079,0.6647 -7.52297,0.66616 -9.92188,0.003 -3.67753,-1.01706 -8.03672,-3.64099 -10.49829,-6.31923 -2.94533,-3.20502 -5.18715,-7.16773 -6.21924,-10.99405 -0.82374,-3.0539 -0.82032,-8.59481 0.007,-11.82521 0.81554,-3.18319 2.81485,-7.21268 4.82752,-9.72955 1.81938,-2.27516 5.33007,-5.27931 7.34197,-6.28262 l 1.30273,-0.64967 -0.12579,-2.64929 c -0.14794,-3.1158 0.39451,-7.14717 1.32312,-9.833 l 0.62652,-1.81212 -1.0178,-1.32292 C 41.19275,91.98393 40.21384,88.517 40.77671,85.49033 42.05477,78.6179 48.43117,74.411194 54.98329,76.1178 c 2.00665,0.52267 3.72217,1.46563 5.29723,2.91169 l 1.25855,1.15547 2.28298,-0.54379 c 3.01649,-0.71851 8.25638,-0.59572 10.8671,0.25465 l 1.70494,0.55535 1.20934,-1.1312 c 2.60888,-2.4403 5.57109,-3.51402 9.00681,-3.26473 1.09141,0.0792 2.50923,0.33343 3.15072,0.56498 l 1.16634,0.42099 2.58113,-1.32584 c 6.85222,-3.519745 15.13441,-5.818648 23.79348,-6.6044 9.59785,-0.870942 20.66064,0.621392 30.46418,4.109522 2.81701,1.002299 8.44094,3.747508 11.26599,5.499268 12.30046,7.62729 21.41232,19.17877 25.20882,31.95828 1.68629,5.67625 1.98602,7.93989 1.97404,14.90814 -0.0101,5.86192 -0.0655,6.60634 -0.72135,9.685 -1.2636,5.93173 -3.26795,10.95537 -6.27916,15.73794 -1.86353,2.95974 -2.97693,4.37856 -5.72886,7.30034 -1.29515,1.3751 -1.99823,2.35836 -2.17567,3.04271 -0.78422,3.02447 -3.208,12.6147 -3.208,12.69316 0,0.0505 0.66076,0.0919 1.46835,0.0919 1.64592,0 2.72061,0.44979 3.52842,1.47676 1.17518,1.494 0.9551,3.61255 -0.52233,5.02803 l -0.805,0.77125 -63.94565,0.0461 c -35.17011,0.0254 -64.12425,-0.0196 -64.34253,-0.0998 z m 77.7875,-12.47511 v -5.25279 l -2.4474,-0.16808 c -1.34607,-0.0925 -3.16565,-0.24319 -4.04353,-0.33499 l -1.59613,-0.16691 -0.32065,2.47893 c -0.27031,2.08972 -1.19365,6.32396 -1.78605,8.19045 -0.15449,0.48675 0.0381,0.50619 5.01655,0.50619 h 5.17721 z m -19.09262,1.35019 c 1.21674,-3.09372 1.92815,-8.04427 2.1197,-14.75052 0.1547,-5.41619 0.2319,-6.18421 0.70201,-6.9838 0.7426,-1.26305 1.72732,-1.91587 3.12806,-2.07376 1.60998,-0.18147 2.36748,0.0416 3.49081,1.02788 1.3424,1.17864 1.54237,1.66975 1.70339,4.18337 l 0.14344,2.23911 0.92604,0.21623 c 1.72355,0.40244 8.77079,0.54675 11.15457,0.22841 5.58745,-0.74615 10.7683,-2.76984 13.55737,-5.29564 1.73269,-1.56913 2.38295,-1.87617 3.97345,-1.87617 3.11124,0 5.18205,3.93458 3.51773,6.68378 -0.54303,0.89699 -2.54613,2.77013 -3.58264,3.35019 -0.32293,0.18072 -0.0851,0.52093 1.1878,1.69946 2.71171,2.51057 4.05838,5.79088 4.05838,9.8857 v 2.19337 h 5.40208 5.40207 l 0.4025,-1.12448 c 0.60804,-1.69875 0.85064,-2.56695 2.15521,-7.71277 0.6604,-2.60492 1.42883,-5.25189 1.70763,-5.88216 0.29175,-0.65955 1.68479,-2.37934 3.28199,-4.05182 3.30515,-3.46092 4.79202,-5.48502 6.51466,-8.86851 5.73866,-11.27148 5.58809,-25.30795 -0.39901,-37.19674 -2.29882,-4.56485 -6.55261,-10.23169 -10.12753,-13.49176 -8.62823,-7.86833 -18.90301,-12.66776 -30.87605,-14.42246 -5.32128,-0.77985 -16.43592,-0.55873 -18.96633,0.37733 -0.36098,0.13353 -0.003,0.50976 1.64139,1.72461 2.42571,1.79218 6.24357,5.65158 7.40959,7.49021 1.66663,2.628 1.5905,4.58376 -0.24291,6.24014 -2.32086,2.09675 -4.65869,1.44473 -7.29864,-2.0356 -3.12433,-4.11891 -8.61773,-8.09302 -13.22089,-9.56445 l -1.83822,-0.5876 -1.21597,0.67891 -1.21598,0.67891 0.36669,1.73922 c 0.76201,3.61426 -0.0399,7.12225 -2.24236,9.80902 -1.43378,1.74907 -2.88958,2.77969 -4.6757,3.31011 -2.5434,0.75531 -4.69048,0.26298 -6.44985,-1.47897 -1.2392,-1.22694 -2.3442,-3.16267 -2.1276,-3.72712 0.0824,-0.21465 1.14397,-0.71614 2.3591,-1.11442 2.43285,-0.79741 3.08918,-1.22934 3.90737,-2.57144 1.08146,-1.77392 0.36082,-4.1126 -1.30115,-4.22255 -1.44666,-0.0957 -1.89158,0.0519 -2.89833,0.96141 -1.18727,1.07262 -1.96148,2.86667 -2.24618,5.20496 -0.10187,0.83675 -0.2743,1.52135 -0.38317,1.52135 -0.10887,0 -1.19138,-0.65359 -2.40559,-1.45243 -3.79532,-2.49695 -6.56402,-3.20558 -11.62228,-2.9746 -3.69904,0.16891 -5.72505,0.75252 -8.44921,2.43388 -1.06881,0.65967 -1.97496,1.1994 -2.01366,1.1994 -0.0387,0 -0.14033,-0.59073 -0.22584,-1.31273 -0.35808,-3.02344 -1.67273,-5.23122 -3.46773,-5.82363 -2.37855,-0.78499 -4.06595,1.40375 -2.92914,3.79941 0.58912,1.24148 1.51084,1.8831 3.8937,2.71045 1.05791,0.36732 2.0293,0.77032 2.15865,0.89557 0.13513,0.13086 -0.20253,0.72699 -0.79375,1.40135 -0.56591,0.64548 -1.41339,1.93269 -1.8833,2.86045 -1.33648,2.63869 -1.68709,4.89512 -1.6209,10.43167 l 0.0572,4.7838 -0.80249,1.71489 c -1.07804,2.30371 -2.07124,3.37103 -5.51068,5.92189 -4.31331,3.19896 -5.6225,4.80383 -7.01525,8.59959 -2.38156,6.49066 -0.41559,13.33624 4.99432,17.39043 3.46414,2.59602 7.52486,3.15447 12.01031,1.65171 l 2.39452,-0.80224 2.27691,0.78832 c 5.89095,2.03958 10.96068,0.97329 15.11248,-3.17851 4.13978,-4.13978 5.27051,-9.92387 3.01159,-15.40531 -0.98913,-2.4002 -1.08455,-4.00069 -0.32615,-5.47086 0.69625,-1.3497 2.36657,-2.38125 3.85579,-2.38125 0.98479,0 2.60709,0.74025 3.29891,1.50528 1.06684,1.17973 3.01064,6.72667 3.83021,10.93014 l 0.23214,1.19062 0.98587,-3.0427 c 0.54223,-1.67349 1.15227,-4.24844 1.35565,-5.72211 0.40223,-2.91449 0.82428,-3.9896 1.89762,-4.83388 1.62198,-1.27586 3.77747,-1.21856 5.39609,0.14342 1.7321,1.45746 2.0909,3.26426 1.47807,7.44306 -1.05549,7.19733 -3.56662,13.22485 -7.85082,18.84451 -2.43917,3.1995 -6.67529,7.01757 -9.74798,8.78599 l -0.99781,0.57426 1.56792,0.74151 c 4.234,2.00236 6.8219,6.61977 6.8219,12.17183 v 1.80349 h 5.92103 5.92102 z m -56.9882,-32.1883 c -0.95613,-0.41647 -2.16932,-1.7842 -2.40085,-2.70669 -0.26035,-1.03733 0.0593,-3.00157 0.61268,-3.7644 0.27823,-0.38356 1.08132,-0.98566 1.78466,-1.338 1.16788,-0.58506 1.38468,-0.61323 2.49979,-0.32479 1.53685,0.39754 3.09278,1.94827 3.35449,3.34327 0.6109,3.25642 -2.85595,6.09507 -5.85077,4.79061 z m 21.62418,-0.0728 c -1.29829,-0.63977 -2.22386,-2.00171 -2.35738,-3.46879 -0.3964,-4.35541 5.26859,-6.38556 7.72622,-2.76883 2.3623,3.47643 -1.60903,8.09039 -5.36884,6.23762 z m 7.9143,-26.58526 c -1.56845,-1.07622 -2.0087,-1.90771 -2.0087,-3.79373 0,-1.8793 0.44378,-2.72362 1.98168,-3.77031 1.62983,-1.10925 4.37927,-0.56174 5.61988,1.1191 0.25179,0.34115 0.6004,1.15341 0.77468,1.80502 0.41848,1.56465 -0.20663,3.31945 -1.54657,4.34146 -1.33762,1.02026 -3.56783,1.15833 -4.82097,0.29846 z"
       id="path1" /></g></svg>
