<?xml version="1.0" encoding="UTF-8" standalone="no"?>
<!-- Created with Inkscape (http://www.inkscape.org/) -->

<svg
   width="208.89015mm"
   height="48.290276mm"
   viewBox="0 0 208.89015 48.290276"
   version="1.1"
   id="svg1"
   xml:space="preserve"
   xmlns="http://www.w3.org/2000/svg"
   xmlns:svg="http://www.w3.org/2000/svg"><defs
     id="defs1" /><g
     id="layer1"
     transform="translate(-1.11012,-129.83547)"><path
       style="fill:#000000;stroke-width:0.336221"
       d="m 65.685363,178.11077 c -0.01972,-0.0192 -0.155928,-0.0565 -0.302708,-0.083 -0.584081,-0.10529 -0.760769,-0.15483 -1.155003,-0.32382 -0.922457,-0.39541 -1.861075,-1.24094 -2.197958,-1.97996 -0.105939,-0.23239 -0.220646,-0.42254 -0.2549,-0.42254 -0.03425,0 -0.06317,0.47036 -0.06433,1.04526 -7.74e-4,0.57489 -0.0062,1.09577 -0.01082,1.15751 -0.007,0.0887 -0.722906,0.10737 -3.411464,0.089 l -3.402664,-0.0233 -0.0225,-14.56797 -0.0225,-14.56797 3.577133,0.0232 3.577133,0.0233 -0.0015,4.5886 -0.0015,4.5886 0.304254,-0.40754 c 0.774378,-1.03728 2.006146,-1.83664 3.309739,-2.14785 0.629415,-0.15026 2.128608,-0.15083 2.757707,-7.7e-4 1.734816,0.41304 3.05562,1.72095 3.779816,3.7429 0.131432,0.36695 0.255456,0.73725 0.275622,0.82287 0.02018,0.0856 0.05668,0.23574 0.08113,0.33359 0.06758,0.2703 0.130674,0.55423 0.177917,0.80063 0.02343,0.12232 0.0624,0.32087 0.08653,0.44123 0.02412,0.12036 0.06688,0.38056 0.09502,0.57823 0.02814,0.19767 0.06688,0.45948 0.08618,0.58179 0.264479,1.67819 0.416185,6.2606 0.262113,7.91731 -0.102281,1.09979 -0.112998,1.20094 -0.127241,1.20094 -0.0079,0 -0.03116,0.12893 -0.05173,0.2865 -0.03255,0.24905 -0.16935,0.86755 -0.251443,1.13683 -0.01492,0.0489 -0.05892,0.20906 -0.09781,0.35584 -0.03889,0.14679 -0.09457,0.30691 -0.123746,0.35583 -0.02915,0.0489 -0.05382,0.10898 -0.05482,0.13344 -0.0046,0.11226 -0.546681,1.15288 -0.787972,1.5123 -0.417878,0.62245 -1.313427,1.4574 -2.001839,1.86638 -0.54815,0.32565 -1.525034,0.7275 -2.094711,0.8617 -0.244229,0.0575 -1.883869,0.12654 -1.930394,0.0813 z m -1.105208,-5.70555 c 0.530381,-0.25169 0.911014,-0.91411 1.172764,-2.04098 0.21289,-0.91655 0.268314,-7.29623 0.07067,-8.13364 -0.23819,-1.00912 -0.639027,-1.44802 -1.484417,-1.62534 -0.836592,-0.17547 -1.368814,0.05 -1.722615,0.72969 -0.08914,0.17125 -0.168747,0.34139 -0.176913,0.37808 -0.0082,0.0367 -0.02289,0.0767 -0.03278,0.089 -0.0573,0.0711 -0.197318,0.77145 -0.324613,1.62349 -0.08792,0.58851 -0.08958,6.6504 -0.0023,7.15373 0.08727,0.50137 0.345195,1.05004 0.646194,1.37465 0.47556,0.51287 1.300669,0.71378 1.853675,0.45136 z m -26.196419,5.51205 c -0.969569,-0.20228 -1.946863,-0.74562 -2.575923,-1.43213 -0.479434,-0.52321 -1.036221,-1.46076 -1.118399,-1.88319 -0.01554,-0.0801 -0.03642,-0.15562 -0.04624,-0.16785 -0.0098,-0.0122 -0.0249,-0.0523 -0.0334,-0.089 -0.0085,-0.0366 -0.04199,-0.14678 -0.07431,-0.24463 -0.06518,-0.19706 -0.128262,-0.50966 -0.224365,-1.11199 -0.08225,-0.51549 -0.081,-2.84658 0.0015,-3.4249 0.310084,-2.1648 1.451416,-3.47109 3.882694,-4.44382 0.643797,-0.25758 2.670325,-0.8331 4.102349,-1.16503 0.780487,-0.18091 1.871892,-0.52554 2.138019,-0.67511 0.510479,-0.28691 0.745236,-0.78155 0.768997,-1.62033 0.02381,-0.84003 -0.132832,-1.32203 -0.555481,-1.70938 -0.380137,-0.34839 -0.794644,-0.47363 -1.491376,-0.45062 -1.113574,0.0368 -1.582732,0.62845 -1.625197,2.04954 -0.0133,0.44501 -0.02675,0.83913 -0.02985,0.87583 -0.0031,0.0367 -1.531692,0.0667 -3.396772,0.0667 h -3.391058 l 0.05018,-0.86735 c 0.130859,-2.2616 1.038455,-3.94271 2.76107,-5.11426 0.892001,-0.60666 2.155764,-1.09404 3.348152,-1.29126 0.76111,-0.12589 3.840515,-0.0543 4.705414,0.10942 0.07855,0.0148 0.332855,0.0526 0.565114,0.0838 0.790632,0.10636 2.15578,0.5059 2.824699,0.82671 0.874216,0.41928 1.719514,1.25238 2.138885,2.10801 0.165615,0.33791 0.307926,0.65817 0.316238,0.71167 0.0084,0.0535 0.06395,0.27726 0.1237,0.49724 0.276425,1.01826 0.289532,1.41924 0.308236,9.42995 0.01724,7.38623 0.0184,7.43099 0.210872,7.95348 0.106441,0.28898 0.193529,0.55919 0.193529,0.60046 0,0.0413 -1.517194,0.075 -3.37155,0.075 h -3.37155 L 45.4018,177.1473 c -0.06387,-0.25686 -0.122926,-0.49704 -0.131192,-0.53374 -0.0083,-0.0367 -0.02281,-0.35695 -0.0324,-0.71167 -0.0096,-0.35472 -0.04462,-0.5849 -0.07783,-0.51152 -0.412033,0.90927 -1.517379,1.83719 -2.656245,2.22985 -1.161537,0.40049 -2.992155,0.53245 -4.120598,0.29702 z m 5.407094,-4.97794 c 0.703204,-0.29375 1.110551,-0.89583 1.308317,-1.93373 0.166512,-0.87389 0.187807,-4.10728 0.0266,-4.04028 -1.427322,0.59326 -2.548559,1.08627 -2.73059,1.20065 -0.373449,0.23465 -0.985598,0.91214 -1.135255,1.25644 -0.17351,0.39917 -0.212194,1.43577 -0.0733,1.96486 0.200318,0.76322 0.61757,1.32841 1.155807,1.56563 0.363506,0.16021 1.047766,0.15379 1.448432,-0.0136 z m 35.157998,4.97794 c -0.953456,-0.19891 -1.948024,-0.74689 -2.552062,-1.40608 -0.448559,-0.48953 -0.921568,-1.22807 -0.92988,-1.45189 -0.0015,-0.038 -0.03387,-0.10924 -0.07222,-0.15817 -0.08488,-0.10845 -0.335051,-0.87917 -0.404262,-1.24542 -0.148334,-0.78501 -0.178087,-1.18077 -0.177237,-2.3574 7.73e-4,-1.12589 0.04369,-1.72019 0.160544,-2.22396 0.563637,-2.43051 2.139727,-3.64898 6.003539,-4.64136 0.768053,-0.19726 1.456504,-0.37266 1.52989,-0.38978 0.942197,-0.21974 2.222678,-0.61114 2.488882,-0.76076 0.511097,-0.28725 0.750153,-0.78266 0.77345,-1.60286 0.02412,-0.84868 -0.105498,-1.2799 -0.504618,-1.67901 -0.38449,-0.3845 -0.817206,-0.52518 -1.54172,-0.50125 -1.113566,0.0368 -1.582732,0.62845 -1.625189,2.04954 -0.0133,0.44501 -0.02675,0.83913 -0.02985,0.87583 -0.0031,0.0367 -1.531684,0.0667 -3.396772,0.0667 H 75.28027 l 0.05165,-0.86735 c 0.05644,-0.94867 0.074,-1.05799 0.286098,-1.78765 0.694219,-2.38805 2.895077,-4.13382 5.821678,-4.61787 0.76111,-0.12589 3.840515,-0.0543 4.705421,0.10942 0.07855,0.0148 0.332848,0.0526 0.565115,0.0838 0.790623,0.10636 2.155772,0.5059 2.824691,0.82671 0.874216,0.41928 1.719514,1.25238 2.138884,2.10801 0.165616,0.33791 0.307927,0.65817 0.316247,0.71167 0.0084,0.0535 0.06395,0.27726 0.123692,0.49724 0.276425,1.01826 0.289531,1.41924 0.308235,9.42995 0.01724,7.38623 0.0184,7.43099 0.210873,7.95348 0.106441,0.28898 0.193528,0.55919 0.193528,0.60046 0,0.0413 -1.517193,0.075 -3.371549,0.075 h -3.37155 l -0.116168,-0.46704 c -0.06387,-0.25686 -0.122927,-0.49704 -0.131192,-0.53374 -0.0083,-0.0367 -0.02281,-0.35695 -0.0324,-0.71167 -0.0096,-0.35472 -0.04462,-0.5849 -0.07784,-0.51152 -0.412025,0.90927 -1.517379,1.83719 -2.656245,2.22985 -1.161529,0.40049 -2.992147,0.53245 -4.12059,0.29702 z m 5.407086,-4.97794 c 0.703204,-0.29375 1.110558,-0.89583 1.308317,-1.93373 0.166512,-0.87389 0.187807,-4.10728 0.0266,-4.04028 -1.427322,0.59326 -2.548559,1.08627 -2.73059,1.20065 -0.373449,0.23465 -0.985598,0.91214 -1.135255,1.25644 -0.17351,0.39917 -0.212194,1.43577 -0.0733,1.96486 0.200318,0.76322 0.61757,1.32841 1.155807,1.56563 0.363506,0.16021 1.047765,0.15379 1.448432,-0.0136 z m 17.979916,5.0843 c -0.0195,-0.0177 -0.27558,-0.0572 -0.56914,-0.0878 -0.52467,-0.0547 -0.73807,-0.0884 -1.2217,-0.1933 -0.13374,-0.029 -0.27384,-0.0555 -0.31136,-0.0588 -0.20595,-0.0185 -1.350131,-0.45486 -1.827563,-0.69701 -1.431204,-0.72588 -2.503789,-1.89552 -3.166755,-3.45328 -0.111915,-0.26297 -0.216679,-0.54319 -0.232816,-0.62272 -0.01616,-0.0795 -0.0757,-0.26467 -0.132444,-0.41146 -0.05676,-0.14678 -0.09661,-0.26687 -0.08866,-0.26687 0.01492,0 -0.08417,-0.57425 -0.153476,-0.88959 -0.08306,-0.37794 -0.110787,-2.37762 -0.03495,-2.51936 0.07291,-0.13621 0.387073,-0.14864 3.559271,-0.14083 1.913623,0.005 3.503863,0.0331 3.533853,0.0631 0.03,0.03 0.0662,0.46648 0.0804,0.96997 0.0142,0.5035 0.0493,1.00552 0.0777,1.1156 0.0285,0.11009 0.0704,0.28458 0.0931,0.38778 0.0884,0.40201 0.43393,0.98092 0.73236,1.22691 0.66176,0.54548 1.81902,0.59044 2.76575,0.10745 0.78388,-0.3999 1.2469,-1.36095 1.2453,-2.58474 -0.002,-1.11148 -0.34394,-1.95376 -0.99701,-2.45187 -0.1713,-0.13066 -1.67818,-0.85147 -3.34863,-1.6018 -1.67045,-0.75033 -3.358168,-1.55738 -3.750483,-1.79345 -0.392316,-0.23606 -1.024005,-0.72943 -1.403755,-1.09639 -0.71198,-0.68798 -1.523658,-1.83218 -1.64077,-2.31292 -0.0062,-0.0245 -0.06619,-0.14456 -0.133914,-0.26688 -0.06773,-0.12232 -0.1135,-0.22239 -0.101794,-0.22239 0.01168,0 -0.0167,-0.10008 -0.0631,-0.2224 -0.286732,-0.75583 -0.414507,-1.69867 -0.415929,-3.06907 -0.0023,-2.1658 0.193884,-3.17825 0.896732,-4.62882 0.889178,-1.83513 2.432383,-3.13384 4.528253,-3.81085 0.67358,-0.21757 0.82031,-0.25323 1.54581,-0.37559 0.16521,-0.0278 0.38538,-0.0672 0.48927,-0.0874 0.90763,-0.17636 3.33358,-0.23493 4.35415,-0.10511 3.15968,0.4019 5.398,2.21091 6.30235,5.09357 0.0461,0.14678 0.10087,0.34693 0.12182,0.44479 0.11109,0.51875 0.13673,0.64141 0.17662,0.84511 0.0914,0.46683 0.18353,2.12567 0.14204,2.55756 -0.008,0.0869 -0.78735,0.11119 -3.56902,0.11119 H 106.259 l -0.007,-0.91182 c -0.008,-1.07537 -0.028,-1.20815 -0.26595,-1.74603 -0.36144,-0.8171 -0.90061,-1.16779 -1.73379,-1.12773 -0.58336,0.0281 -1.02911,0.19169 -1.38543,0.50861 -0.24178,0.21504 -0.48543,0.60256 -0.45233,0.71941 0.0104,0.0367 -0.0126,0.0667 -0.0511,0.0667 -0.0958,0 -0.12763,0.27452 -0.129,1.11198 -0.002,1.13991 0.13509,1.50622 0.80754,2.1599 0.33713,0.32772 1.04561,0.71497 3.79494,2.07426 3.72346,1.84092 4.74164,2.45417 5.7387,3.4564 0.85471,0.85914 1.31526,1.73037 1.55943,2.94995 0.24751,1.23628 0.1999,3.74279 -0.0961,5.06067 -0.0275,0.12231 -0.0685,0.31142 -0.0912,0.42023 -0.0226,0.1088 -0.0781,0.29484 -0.1232,0.41341 -0.0451,0.11856 -0.0578,0.2397 -0.0283,0.26919 0.0295,0.0295 0.005,0.0537 -0.0554,0.0537 -0.06,0 -0.0887,0.0329 -0.0639,0.0731 0.0248,0.0402 -0.0104,0.18032 -0.0784,0.31136 -0.068,0.13104 -0.10574,0.23826 -0.0839,0.23826 0.068,0 -0.77454,1.55507 -0.8595,1.58642 -0.0442,0.0163 -0.0804,0.0692 -0.0804,0.11755 0,0.0483 -0.0528,0.14068 -0.11728,0.20519 -0.0645,0.0645 -0.21518,0.23363 -0.33484,0.37584 -0.80743,0.95957 -2.79597,2.0131 -4.3307,2.2944 -0.13383,0.0245 -0.34341,0.0649 -0.46573,0.0899 -0.12231,0.0249 -0.40254,0.0682 -0.62271,0.0962 -0.22017,0.0281 -0.50039,0.0708 -0.6227,0.0951 -0.26767,0.0531 -3.69495,0.13142 -3.74536,0.0856 z m 21.34899,-7.7e-4 c -0.0189,-0.0171 -0.29454,-0.057 -0.61256,-0.0887 -1.4609,-0.14539 -3.21329,-0.79991 -4.15966,-1.55365 -0.5994,-0.47738 -1.17715,-1.21377 -1.61418,-2.05737 -0.34217,-0.66049 -0.83392,-2.06762 -0.93265,-2.66876 -0.0281,-0.17124 -0.0718,-0.41143 -0.0969,-0.53375 -0.0432,-0.21031 -0.0763,-0.39898 -0.17941,-1.02302 -0.23852,-1.44433 -0.24239,-6.54749 -0.005,-7.26591 0.0213,-0.0647 0.0603,-0.27777 0.0867,-0.47348 0.0738,-0.54812 0.12291,-0.76359 0.36347,-1.59374 0.8612,-2.97179 2.78162,-4.87484 5.47064,-5.42112 1.62788,-0.33072 4.68753,-0.38787 6.0047,-0.11219 1.62258,0.33961 2.60961,0.83299 3.55277,1.77591 0.44417,0.44406 0.83303,0.93226 1.00287,1.25904 0.26094,0.50211 0.62451,1.47192 0.70034,1.86814 0.0187,0.0978 0.0554,0.27799 0.0815,0.40031 0.13567,0.63548 0.1761,1.04811 0.27891,2.84667 0.0691,1.20876 0.0828,3.60311 0.023,4.00313 l -0.0466,0.31136 -5.24774,0.0445 -5.24775,0.0445 -0.0278,0.53375 c -0.0153,0.29356 -0.0366,1.22289 -0.0472,2.06518 -0.0211,1.65915 0.059,2.09681 0.46926,2.56371 0.63719,0.72521 2.11173,0.76465 2.83588,0.0759 0.18551,-0.17645 0.45909,-0.7217 0.51606,-1.02849 0.0302,-0.1627 0.0696,-0.37589 0.0874,-0.47375 0.0179,-0.0978 0.0356,-0.50817 0.0393,-0.91181 l 0.007,-0.73391 h 3.39286 c 3.8562,0 3.66781,-0.0375 3.53168,0.70244 -0.0414,0.22524 -0.10177,0.46958 -0.13408,0.54297 -0.0323,0.0734 -0.0672,0.16347 -0.0775,0.20016 -0.0104,0.0367 -0.0288,0.0867 -0.041,0.1112 -0.0122,0.0244 -0.0323,0.0845 -0.0445,0.13344 -0.0122,0.0489 -0.0302,0.099 -0.04,0.11119 -0.0154,0.0193 -0.0393,0.12555 -0.12519,0.55599 -0.01,0.049 -0.049,0.139 -0.0872,0.20016 -0.0382,0.0612 -0.0482,0.1112 -0.0222,0.1112 0.0804,0 -0.47603,1.49595 -0.721,1.9385 -0.82783,1.49558 -1.77496,2.32311 -3.36334,2.93864 -0.38476,0.14911 -1.02152,0.30827 -2.04605,0.51142 -0.29509,0.0585 -3.46932,0.13985 -3.524,0.0903 z m 3.27333,-15.46446 c -0.0571,-1.27776 -0.0941,-1.54063 -0.27897,-1.98322 -0.36591,-0.87574 -1.51797,-1.27108 -2.4248,-0.8321 -0.82213,0.39798 -1.15208,1.2157 -1.22573,3.03772 l -0.0387,0.9563 h 2.01039 2.01041 z m 49.47907,15.3755 c -0.0189,-0.0171 -0.29453,-0.057 -0.61257,-0.0887 -1.46089,-0.14539 -3.21327,-0.79991 -4.15966,-1.55365 -0.59938,-0.47737 -1.17714,-1.21376 -1.61417,-2.05737 -0.34216,-0.66049 -0.83391,-2.06762 -0.93265,-2.66875 -0.0281,-0.17125 -0.0718,-0.41144 -0.0969,-0.53376 -0.0458,-0.22269 -0.0981,-0.52314 -0.17799,-1.02302 -0.24185,-1.51289 -0.24717,-6.07286 -0.009,-7.30557 0.0201,-0.10388 0.0594,-0.32406 0.0872,-0.48927 0.0992,-0.58814 0.14417,-0.77791 0.36452,-1.53829 0.88959,-3.06981 2.83004,-4.93448 5.69303,-5.47071 1.5064,-0.28214 5.10387,-0.31434 5.84816,-0.0523 0.0616,0.0216 0.21214,0.0565 0.33445,0.0773 0.41735,0.071 1.37795,0.42683 1.91261,0.70843 0.70965,0.37378 1.88121,1.54338 2.24272,2.23899 0.26095,0.50211 0.62452,1.47191 0.70034,1.86813 0.0187,0.0979 0.0554,0.27799 0.0815,0.40031 0.13567,0.63548 0.1761,1.04811 0.27891,2.84667 0.0691,1.20876 0.0828,3.60312 0.023,4.00314 l -0.0466,0.31135 -5.24774,0.0445 -5.24775,0.0445 -0.0278,0.53375 c -0.0153,0.29356 -0.0366,1.2229 -0.0472,2.06518 -0.0211,1.65915 0.059,2.09681 0.46925,2.56371 0.6372,0.72521 2.11174,0.76465 2.83589,0.0759 0.1855,-0.17645 0.45909,-0.7217 0.51606,-1.02849 0.0302,-0.16271 0.0696,-0.3759 0.0874,-0.47375 0.0179,-0.0979 0.0356,-0.50818 0.0393,-0.91182 l 0.007,-0.73392 h 3.39285 c 3.85621,0 3.66782,-0.0375 3.53169,0.70245 -0.0414,0.22524 -0.10177,0.46959 -0.13408,0.54297 -0.0323,0.0734 -0.0672,0.16346 -0.0775,0.20016 -0.0104,0.0367 -0.0288,0.0867 -0.0411,0.1112 -0.0122,0.0245 -0.0322,0.0845 -0.0445,0.13344 -0.0122,0.0489 -0.0302,0.099 -0.04,0.1112 -0.0154,0.0192 -0.0393,0.12554 -0.12519,0.55599 -0.01,0.0489 -0.049,0.139 -0.0872,0.20015 -0.0382,0.0612 -0.0482,0.1112 -0.0222,0.1112 0.0804,0 -0.47603,1.49596 -0.72099,1.93851 -0.82782,1.49557 -1.77496,2.3231 -3.36335,2.93863 -0.38475,0.14911 -1.02151,0.30827 -2.04603,0.51142 -0.2951,0.0585 -3.46933,0.13985 -3.52401,0.0903 z m 3.27333,-15.46446 c -0.0289,-0.64828 -0.0762,-1.29436 -0.10513,-1.43573 -0.20284,-0.99342 -0.88306,-1.56661 -1.85909,-1.56661 -0.76029,0 -1.43295,0.5439 -1.6917,1.36789 -0.21459,0.68338 -0.23448,0.81881 -0.27277,1.85685 l -0.0352,0.95631 h 2.00829 2.00831 z M 1.1694259,177.55533 C 1.136796,177.5227 1.11012,167.675 1.11012,155.67153 v -21.82452 h 5.6838287 c 4.4692343,0 5.6912443,0.0237 5.7185613,0.11119 0.0191,0.0612 0.03093,3.87729 0.02629,8.48028 l -0.0084,8.36909 0.302135,-0.62969 c 0.166172,-0.34634 0.37532,-0.78982 0.464766,-0.98553 0.08945,-0.19571 0.426314,-0.91062 0.748591,-1.58869 0.322286,-0.67807 0.585976,-1.24359 0.585976,-1.2567 0,-0.0131 0.279387,-0.60961 0.620872,-1.32555 0.341476,-0.71594 0.698355,-1.47146 0.793067,-1.67893 0.0947,-0.20747 0.379897,-0.81757 0.63376,-1.35577 0.253864,-0.5382 0.573226,-1.21873 0.709684,-1.51229 0.136465,-0.29356 0.412535,-0.88403 0.613494,-1.31214 0.20096,-0.42812 0.529802,-1.12866 0.730761,-1.55677 0.20096,-0.42812 0.47703,-1.01858 0.613487,-1.31215 0.136466,-0.29356 0.450965,-0.96409 0.698905,-1.49005 l 0.450786,-0.9563 h 5.948618 c 3.271742,0 5.973692,0.025 6.004343,0.0557 0.0542,0.0542 -0.07585,0.31037 -0.886603,1.74692 -0.214391,0.37987 -0.495363,0.88026 -0.624382,1.11198 -0.129027,0.23172 -0.313718,0.56143 -0.41044,0.73267 -0.09671,0.17124 -0.276356,0.49149 -0.399197,0.71166 -0.122841,0.22018 -0.557522,0.9948 -0.965967,1.72139 -0.408437,0.72659 -0.742622,1.35708 -0.742622,1.40109 0,0.044 -0.04237,0.08 -0.09421,0.08 -0.05181,0 -0.06944,0.0401 -0.0392,0.089 0.03023,0.049 0.0126,0.089 -0.0392,0.089 -0.05181,0 -0.09421,0.0335 -0.09421,0.0744 0,0.0409 -0.324095,0.65139 -0.720214,1.35662 -0.396113,0.70523 -0.843002,1.50241 -0.993076,1.77152 -0.150074,0.26909 -0.352046,0.62937 -0.44883,0.80062 -0.09678,0.17124 -0.276681,0.49149 -0.399793,0.71167 -0.123111,0.22017 -0.684066,1.22096 -1.246575,2.22396 -0.562508,1.003 -1.123223,2.0038 -1.246049,2.22396 -0.122818,0.22018 -0.302437,0.54043 -0.399159,0.71167 -0.265995,0.47098 -0.612211,1.09043 -0.720925,1.2899 -0.05335,0.0978 -0.124303,0.19864 -0.157722,0.22396 -0.0334,0.0253 0.02938,0.22548 0.139644,0.4448 0.110222,0.21931 1.274032,2.5204 2.586238,5.11355 1.312206,2.59314 3.225519,6.3761 4.251805,8.40658 1.026285,2.03048 2.641971,5.21849 3.590424,7.08449 0.948445,1.86599 1.724448,3.43749 1.724448,3.49221 0,0.0726 -1.707553,0.0933 -6.326018,0.0767 l -6.326018,-0.0228 -1.934577,-4.32883 c -1.942966,-4.34761 -2.035366,-4.55812 -2.053761,-4.67915 -0.0054,-0.0362 -0.04291,-0.10582 -0.08321,-0.15475 -0.04029,-0.0489 -0.322138,-0.6494 -0.626392,-1.33438 -0.304261,-0.68498 -0.615753,-1.38552 -0.692216,-1.55677 -0.07647,-0.17125 -0.144716,-0.33137 -0.151682,-0.35583 -0.007,-0.0245 -0.141847,-0.32366 -0.299739,-0.66488 -0.157891,-0.34121 -0.451118,-0.99297 -0.651614,-1.44834 -0.200503,-0.45538 -0.401347,-0.81569 -0.446325,-0.80069 -0.045,0.015 -0.212859,0.26643 -0.37307,0.55876 -0.310231,0.56608 -0.580718,1.05115 -1.131721,2.02952 -0.188465,0.33464 -0.34266,0.64488 -0.34266,0.68942 0,0.0445 -0.03325,0.081 -0.074,0.081 -0.04067,0 -0.07735,2.65207 -0.08146,5.8935 -0.0039,3.24143 -0.01083,5.94354 -0.01492,6.0047 -0.0062,0.0877 -1.197607,0.1112 -5.6415332,0.1112 -3.0987195,0 -5.6607249,-0.0267 -5.693347,-0.0593 z m 135.0390341,-0.089 c -0.0326,-0.0326 -0.0593,-4.95647 -0.0593,-10.9419 v -10.88259 h 3.41453 c 3.17898,0 3.417,0.0108 3.45038,0.15568 0.0197,0.0856 0.0292,0.74782 0.0212,1.47154 -0.0131,1.17506 -0.002,1.29029 0.10944,1.07674 0.4659,-0.89802 1.65998,-2.23662 2.36229,-2.6482 0.80977,-0.47456 1.3031,-0.59309 2.71827,-0.65315 l 1.08974,-0.0462 v 0.32182 0.32182 h 3.41965 c 1.90485,0 3.44135,0.0351 3.46864,0.0793 0.046,0.0744 0.0873,0.35247 0.18105,1.21714 0.0216,0.19929 0.0588,0.47951 0.0826,0.62271 0.0239,0.1432 0.0657,0.4305 0.093,0.63844 0.0273,0.20794 0.0742,0.54821 0.10431,0.75615 0.0653,0.45109 0.0947,0.67745 0.16488,1.26766 0.0291,0.24463 0.0694,0.54487 0.0894,0.66719 0.0201,0.12231 0.0574,0.38252 0.0829,0.57823 0.0254,0.1957 0.0724,0.53597 0.10432,0.75614 0.0685,0.47253 0.0972,0.69266 0.16819,1.28991 0.0291,0.24463 0.0693,0.54486 0.0894,0.66718 0.0201,0.12232 0.0604,0.40254 0.0895,0.62272 0.0292,0.22016 0.0761,0.56043 0.10431,0.75614 0.0621,0.42985 0.0923,0.66288 0.16156,1.24542 0.0291,0.24464 0.0694,0.54487 0.0894,0.66719 0.0201,0.12232 0.0588,0.39253 0.0862,0.60047 0.0273,0.20794 0.0742,0.5482 0.10431,0.75614 0.13766,0.95157 0.18852,1.36941 0.20214,1.66056 0.0202,0.43388 0.10336,0.15038 0.23244,-0.79321 0.0302,-0.22017 0.0699,-0.50039 0.0883,-0.62271 0.0185,-0.12231 0.0588,-0.44256 0.0896,-0.71167 0.0308,-0.26909 0.0711,-0.58935 0.0896,-0.71167 0.0185,-0.12231 0.0559,-0.39252 0.0832,-0.60046 0.0273,-0.20795 0.072,-0.54822 0.0993,-0.75615 0.0273,-0.20794 0.0647,-0.47816 0.0832,-0.60047 0.0185,-0.12232 0.0597,-0.43864 0.0915,-0.70294 0.0319,-0.26429 0.0702,-0.54451 0.0853,-0.62271 0.015,-0.0782 0.0557,-0.40237 0.0903,-0.7204 0.0346,-0.31802 0.0744,-0.59825 0.0883,-0.62271 0.0139,-0.0244 0.0533,-0.32411 0.0876,-0.66589 0.0343,-0.34178 0.0742,-0.64201 0.089,-0.66719 0.0147,-0.0252 0.054,-0.31821 0.0873,-0.6512 0.0333,-0.33298 0.0765,-0.68785 0.0959,-0.78861 0.0194,-0.10075 0.0613,-0.40877 0.0931,-0.68447 0.0318,-0.27572 0.0718,-0.57595 0.089,-0.6672 0.0172,-0.0912 0.0571,-0.39148 0.089,-0.66718 0.0318,-0.27571 0.0718,-0.57594 0.089,-0.66719 0.0172,-0.0913 0.0571,-0.38847 0.0889,-0.6605 0.0318,-0.27203 0.0701,-0.55766 0.0853,-0.63473 0.0151,-0.0771 0.0306,-0.25064 0.0343,-0.38572 l 0.007,-0.24561 3.75849,0.0232 3.7585,0.0232 -0.0325,0.2224 c -0.0415,0.28439 -0.0825,0.48323 -0.10526,0.51151 -0.02,0.0249 -0.0186,0.0192 -0.12518,0.51151 -0.0424,0.19571 -0.0885,0.39586 -0.10251,0.44479 -0.014,0.0489 -0.0514,0.20906 -0.0831,0.35584 -0.10871,0.5035 -0.11607,0.53375 -0.12965,0.53375 -0.008,0 -0.0277,0.0749 -0.045,0.16643 -0.0172,0.0915 -0.0771,0.35691 -0.13292,0.58972 -0.0558,0.23281 -0.11567,0.49818 -0.13292,0.58972 -0.0173,0.0915 -0.0375,0.16642 -0.045,0.16642 -0.008,0 -0.0267,0.0601 -0.0428,0.13344 -0.0161,0.0734 -0.051,0.23352 -0.0776,0.35584 -0.0266,0.12232 -0.0704,0.31247 -0.0974,0.42255 -0.027,0.11008 -0.0711,0.29023 -0.0981,0.40031 -0.027,0.11009 -0.0686,0.30024 -0.0925,0.42256 -0.0239,0.12232 -0.0636,0.28925 -0.0881,0.37096 -0.0246,0.0817 -0.0631,0.23184 -0.0855,0.33359 -0.0224,0.10177 -0.0608,0.26509 -0.0852,0.36294 -0.10894,0.43577 -0.14532,0.5924 -0.18597,0.80063 -0.0239,0.12233 -0.0636,0.28926 -0.0881,0.37097 -0.0246,0.0817 -0.063,0.23183 -0.0855,0.3336 -0.0224,0.10176 -0.0574,0.25507 -0.0778,0.3407 -0.0204,0.0856 -0.0838,0.35583 -0.14082,0.60047 -0.12858,0.55128 -0.16598,0.7084 -0.22241,0.93406 -0.10893,0.43576 -0.14532,0.5924 -0.18596,0.80063 -0.0239,0.12231 -0.0636,0.28925 -0.0881,0.37097 -0.0246,0.0817 -0.063,0.23183 -0.0855,0.33359 -0.0224,0.10177 -0.0608,0.26509 -0.0852,0.36294 -0.10894,0.43577 -0.14532,0.5924 -0.18597,0.80063 -0.0239,0.12231 -0.0635,0.28925 -0.0881,0.37096 -0.0246,0.0817 -0.063,0.23184 -0.0855,0.3336 -0.0224,0.10176 -0.0574,0.25508 -0.0778,0.34069 -0.0204,0.0856 -0.0838,0.35585 -0.14083,0.60048 -0.12022,0.51548 -0.15944,0.68076 -0.22695,0.9563 -0.027,0.11009 -0.0708,0.30024 -0.0974,0.42256 -0.0266,0.12232 -0.0616,0.28245 -0.0776,0.35583 -0.0161,0.0734 -0.0353,0.13344 -0.0428,0.13344 -0.008,0 -0.0278,0.0749 -0.045,0.16643 -0.0172,0.0915 -0.0771,0.35691 -0.13293,0.58972 -0.0558,0.2328 -0.11567,0.49818 -0.13292,0.58972 -0.0172,0.0915 -0.0375,0.16642 -0.045,0.16642 -0.008,0 -0.0267,0.0601 -0.0428,0.13344 -0.0161,0.0734 -0.051,0.23352 -0.0776,0.35583 -0.0266,0.12232 -0.0704,0.31247 -0.0974,0.42256 -0.027,0.11008 -0.0711,0.29023 -0.0981,0.40031 -0.027,0.11009 -0.0686,0.30023 -0.0925,0.42255 -0.0239,0.12232 -0.0636,0.28926 -0.0881,0.37097 -0.0246,0.0817 -0.0631,0.23183 -0.0855,0.33359 -0.0224,0.10177 -0.0608,0.26509 -0.0852,0.36295 -0.0704,0.28169 -0.14109,0.5669 -0.17631,0.71167 -0.0179,0.0734 -0.0356,0.18347 -0.0393,0.24463 -0.005,0.0874 -0.93997,0.1112 -4.35794,0.1112 h -4.35113 l -0.36534,-1.53454 c -0.20093,-0.84399 -0.38459,-1.6246 -0.40814,-1.73468 -0.0738,-0.34517 -0.11026,-0.49636 -0.25183,-1.04527 -0.0757,-0.29356 -0.1577,-0.63383 -0.18217,-0.75614 -0.0538,-0.26902 -0.0502,-0.25352 -0.44631,-1.89691 -0.17482,-0.72527 -0.33607,-1.4058 -0.35833,-1.5123 -0.073,-0.34906 -0.11911,-0.54234 -0.25862,-1.0832 -0.0757,-0.29356 -0.15769,-0.63383 -0.18216,-0.75615 -0.0692,-0.3459 -0.11435,-0.53711 -0.26263,-1.11198 -0.0757,-0.29357 -0.15769,-0.63383 -0.18216,-0.75614 -0.0692,-0.34591 -0.11436,-0.53712 -0.26264,-1.11199 -0.0757,-0.29356 -0.15769,-0.63383 -0.18216,-0.75615 -0.0692,-0.3459 -0.11435,-0.53711 -0.26263,-1.11198 -0.0757,-0.29356 -0.15617,-0.63383 -0.17878,-0.75615 -0.0226,-0.12231 -0.0636,-0.28244 -0.091,-0.35583 -0.0274,-0.0734 -0.069,-0.23352 -0.0923,-0.35584 -0.0234,-0.12231 -0.0615,-0.30245 -0.0849,-0.40031 -0.0233,-0.0979 -0.10927,-0.45814 -0.19101,-0.80063 -0.0817,-0.34249 -0.16466,-0.70277 -0.18426,-0.80062 -0.15149,-0.75619 -0.19282,-0.61671 -0.19768,0.66719 -0.003,0.75836 -0.008,1.62466 -0.0108,1.92507 l -0.005,0.54621 -0.3336,-0.0569 c -0.18347,-0.0313 -0.79395,-0.0513 -1.35661,-0.0445 -2.03652,0.0247 -3.37525,0.57694 -3.90214,1.60972 -0.39954,0.78319 -0.40183,0.82358 -0.42333,7.49612 -0.0113,3.49829 -0.0234,6.39055 -0.027,6.42725 -0.008,0.0824 -6.98156,0.0897 -7.06389,0.008 z m 52.66345,0 c -0.0326,-0.0326 -0.0593,-4.95647 -0.0593,-10.9419 v -10.88282 h 3.41453 c 3.17897,0 3.417,0.0107 3.45037,0.15568 0.0197,0.0856 0.0292,0.74781 0.0212,1.47154 -0.0131,1.17506 -0.002,1.29028 0.10944,1.07674 0.4659,-0.89802 1.65999,-2.23662 2.36229,-2.6482 0.80978,-0.47456 1.3031,-0.5931 2.71827,-0.65315 l 1.08975,-0.0462 0.004,0.4775 c 0.006,0.70026 0.006,5.36785 7.8e-4,6.00539 l -0.005,0.54621 -0.3336,-0.0569 c -0.18348,-0.0313 -0.79396,-0.0513 -1.35662,-0.0445 -2.03653,0.0247 -3.37524,0.57695 -3.90213,1.60973 -0.39955,0.78319 -0.40184,0.82358 -0.42333,7.49612 -0.0113,3.49829 -0.0234,6.39055 -0.027,6.42725 -0.008,0.0824 -6.98156,0.0897 -7.06387,0.008 z m 14.32231,0 c -0.0326,-0.0326 -0.0593,-1.6739 -0.0593,-3.6473 v -3.588 h 3.42491 c 2.9817,0 3.42587,0.0173 3.43244,0.13345 0.004,0.0734 0.008,1.67464 0.008,3.55834 0,1.88369 -0.003,3.46493 -0.008,3.51386 -0.009,0.10013 -6.69838,0.12931 -6.79805,0.0297 z m -85.06476,-29.45296 c -0.0949,-0.0856 -0.56281,-0.49169 -1.03979,-0.9024 -0.47697,-0.4107 -0.86723,-0.77556 -0.86723,-0.81081 0,-0.0353 0.12107,-0.19961 0.26903,-0.36525 1.4816,-1.65865 2.36844,-3.30895 3.15513,-5.87124 0.44023,-1.4339 0.60919,-2.34336 0.79965,-4.30433 0.0458,-0.47168 0.18945,-3.09882 0.21686,-3.96632 0.007,-0.21482 0.0323,-0.2282 0.38533,-0.20201 0.46607,0.0346 1.80079,0.10584 2.14237,0.1144 l 0.25198,0.006 -0.0582,1.49005 c -0.032,0.81953 -0.0714,1.63017 -0.0875,1.80142 -0.0161,0.17123 -0.0571,0.6695 -0.091,1.10725 -0.0339,0.43775 -0.0734,0.85808 -0.0876,0.93407 -0.0142,0.076 -0.0531,0.37835 -0.0865,0.67191 -0.15053,1.32345 -0.53699,2.93231 -1.02569,4.27 -0.56324,1.54169 -1.48236,3.28817 -2.43444,4.62585 -0.56694,0.79654 -1.15559,1.54543 -1.21977,1.55181 -0.0275,0.002 -0.1276,-0.0651 -0.22252,-0.15071 z m 11.38066,-0.60665 c -0.59475,-0.91242 -1.43806,-2.58239 -1.80059,-3.56562 -0.26602,-0.72148 -0.77171,-2.38169 -0.84943,-2.78873 -0.0234,-0.12231 -0.0612,-0.30246 -0.0841,-0.40031 -0.13115,-0.56019 -0.22651,-1.01517 -0.27037,-1.2899 -0.0273,-0.17124 -0.067,-0.39534 -0.0881,-0.498 -0.0211,-0.10266 -0.0653,-0.39897 -0.0983,-0.65846 -0.0329,-0.25949 -0.0737,-0.54356 -0.0906,-0.63126 -0.0168,-0.0877 -0.0565,-0.4319 -0.0881,-0.76488 -0.0315,-0.33299 -0.0702,-0.68742 -0.0859,-0.78764 -0.0579,-0.37005 -0.15238,-2.0752 -0.17595,-3.17597 l -0.0243,-1.13422 0.36583,-0.006 c 0.20121,-0.004 0.7999,-0.0137 1.33044,-0.0226 0.56736,-0.01 0.98752,0.0206 1.02025,0.0731 0.0306,0.0491 0.0615,0.51043 0.0687,1.02518 0.014,0.99919 0.11773,3.1025 0.16563,3.35798 0.0159,0.0847 0.0557,0.39423 0.0883,0.68779 0.0327,0.29357 0.0773,0.64383 0.0991,0.77839 0.0218,0.13455 0.0604,0.37473 0.0857,0.53375 0.0253,0.15902 0.066,0.38919 0.0905,0.51151 0.0902,0.45108 0.13325,0.67267 0.17457,0.89761 0.28891,1.5728 1.32045,3.93583 2.53978,5.81808 0.47193,0.7285 0.53697,0.8757 0.43145,0.97641 -0.36017,0.34381 -2.17584,1.82646 -2.23668,1.82646 -0.0391,0 -0.29464,-0.34305 -0.56794,-0.76232 z m -42.874449,0.59843 c -0.09157,-0.0662 -0.08577,-0.0371 -0.162623,-0.81464 -0.06611,-0.66869 -0.139419,-1.29244 -0.185588,-1.57902 -0.029,-0.17973 0.0054,-0.20105 0.33993,-0.20897 1.217123,-0.0289 2.615334,-0.31837 3.561638,-0.73745 1.521794,-0.67396 2.580539,-2.12044 2.864195,-3.91308 0.03,-0.18968 0.06851,-0.41736 0.08559,-0.50595 0.01709,-0.0886 0.0409,-0.71402 0.05297,-1.38982 l 0.02196,-1.22875 -0.393839,-0.0212 c -1.319111,-0.0709 -3.731135,-0.0572 -3.73964,0.0212 -0.01825,0.16799 -0.0617,2.31368 -0.07036,3.47562 l -0.0087,1.1627 -1.287719,-0.0114 c -0.708244,-0.006 -1.31144,-0.0352 -1.340428,-0.0642 -0.04083,-0.0408 -0.05405,-2.48407 -0.02304,-4.25131 0.0079,-0.45069 0.192137,-0.41046 -1.999357,-0.43655 l -0.691869,-0.008 0.02467,-1.28986 0.02467,-1.28986 1.354918,-4e-5 1.354919,-4e-5 0.02397,-1.97932 0.02397,-1.97933 1.312137,-0.002 c 1.116867,-0.002 1.312956,0.0176 1.317618,0.13344 0.0031,0.0748 7.73e-4,0.97831 -0.0046,2.00779 l -0.01028,1.87178 2.080623,0.0247 2.080623,0.0247 0.008,-0.56207 c 0.0046,-0.30913 0.01106,-1.27498 0.01469,-2.14632 l 0.007,-1.58427 1.334374,0.0189 c 1.152134,0.0163 1.335093,0.0384 1.339617,0.16093 0.0031,0.0781 7.73e-4,1.04294 -0.0046,2.14409 l -0.0098,2.00211 0.960909,0.0126 c 0.528503,0.007 1.112507,0.0167 1.297785,0.0217 l 0.336884,0.009 -0.0116,1.29668 -0.0116,1.29668 -1.281587,-0.0322 c -0.704874,-0.0177 -1.285955,-0.0108 -1.291283,0.0155 -0.0054,0.0262 -0.02095,0.54089 -0.03479,1.14378 -0.02946,1.28633 -0.108359,2.21618 -0.23543,2.77352 -0.05018,0.22017 -0.109024,0.49264 -0.130728,0.60548 -0.02173,0.11283 -0.133326,0.45452 -0.248041,0.75929 -0.787569,2.09237 -2.198701,3.50204 -4.329907,4.32541 -0.833584,0.32204 -2.214104,0.6094 -3.254346,0.67739 -0.432507,0.0283 -0.830034,0.0646 -0.883402,0.0807 -0.05335,0.0161 -0.133426,0.003 -0.177917,-0.0292 z m -12.362758,-0.5757 c -0.536374,-0.88055 -1.596936,-2.39432 -2.397225,-3.42161 -0.407216,-0.52272 -0.724916,-0.97543 -0.70601,-1.00602 0.03363,-0.0544 1.653179,-1.22133 1.899102,-1.36833 0.140826,-0.0842 0.138553,-0.0866 1.645958,1.77629 0.992874,1.22702 2.188046,2.85355 2.188046,2.97777 0,0.035 -0.516302,0.40752 -1.147341,0.82788 l -1.147332,0.7643 z m -38.617246,-0.57651 -0.993385,-0.78356 0.342861,-0.53926 c 0.817562,-1.28586 1.904955,-3.66233 2.348844,-5.1333 0.258665,-0.8572 0.362702,-1.27588 0.533389,-2.14664 0.01918,-0.0979 0.05714,-0.27799 0.08442,-0.40032 0.02722,-0.12231 0.07315,-0.42254 0.102073,-0.66718 0.02892,-0.24464 0.07338,-0.57815 0.09888,-0.74115 0.04183,-0.26738 0.02614,-0.29468 -0.160443,-0.27927 -0.11374,0.009 -0.750284,0.0127 -1.414556,0.007 l -1.20776,-0.01 0.0096,-1.17869 0.0096,-1.17871 1.529983,-0.0243 1.529975,-0.0244 0.02405,-1.8438 0.02405,-1.84379 1.200932,-0.006 c 0.660522,-0.003 1.254161,0.0122 1.319204,0.0345 0.09538,0.0326 0.108877,0.3957 0.06974,1.87629 l -0.04848,1.83582 0.641895,0.01 c 2.115317,0.0319 2.490452,0.11927 3.115452,0.72523 0.420337,0.40753 0.84543,1.25419 1.000166,1.99204 0.110972,0.52912 0.115689,3.38721 0.007,3.98507 -0.02235,0.12232 -0.06557,0.52263 -0.09616,0.88959 -0.03054,0.36695 -0.0716,0.72723 -0.09119,0.80063 -0.01964,0.0734 -0.05745,0.27354 -0.08419,0.44479 -0.66261,4.24741 -2.27003,5.61643 -4.987955,4.24818 -0.29356,-0.14779 -0.713897,-0.38997 -0.934064,-0.53817 -0.220174,-0.1482 -0.40986,-0.27585 -0.421528,-0.28367 -0.02992,-0.02 0.602175,-2.2016 0.676273,-2.33401 0.04392,-0.0784 0.172729,-0.0335 0.459122,0.16025 0.537325,0.36343 1.174851,0.68862 1.446622,0.73791 0.589788,0.10694 0.963693,-0.6617 1.271179,-2.6132 0.02699,-0.17125 0.06611,-0.41144 0.08699,-0.53375 0.189941,-1.11362 0.222331,-4.14506 0.04972,-4.65124 -0.166675,-0.48871 -0.37355,-0.58467 -1.299904,-0.60297 -1.033971,-0.0204 -1.081594,-0.0153 -1.086256,0.11685 -0.02188,0.62133 -0.447833,2.99924 -0.697111,3.89194 -0.07516,0.2691 -0.151945,0.54932 -0.170657,0.6227 -0.50993,1.99949 -2.072032,5.29358 -3.090376,6.51682 l -0.204153,0.24524 z m 23.795096,0.55864 c -0.01856,-0.0186 -0.172629,-0.0575 -0.342389,-0.0867 -0.500659,-0.0858 -1.378773,-0.53695 -1.798684,-0.92402 -0.214824,-0.19801 -0.507866,-0.57172 -0.651213,-0.83046 -0.239466,-0.43225 -0.260636,-0.5427 -0.260636,-1.36004 0,-0.77907 0.02961,-0.9528 0.238507,-1.39846 0.416981,-0.88967 1.340536,-1.61375 2.430249,-1.90538 0.306148,-0.0819 0.79442,-0.10657 1.566448,-0.0791 l 1.121661,0.04 0.01693,-2.17598 0.01693,-2.17598 -2.295051,-0.009 c -1.26228,-0.005 -2.372637,-0.0152 -2.467472,-0.0222 -0.152865,-0.0114 -0.171121,-0.0784 -0.161046,-0.59102 0.0062,-0.31802 0.01376,-0.85845 0.0167,-1.20094 l 0.0054,-0.62271 2.46983,0.0296 2.46983,0.0296 0.01577,-1.23054 c 0.0087,-0.67679 0.01817,-1.4823 0.02103,-1.79003 l 0.0054,-0.55949 1.312144,0.0298 1.312136,0.0299 0.01933,1.55267 c 0.01067,0.85396 0.02064,1.65515 0.02227,1.7804 0.0023,0.20246 0.0399,0.22828 0.336489,0.23262 0.183477,0.002 0.801697,0.0103 1.373816,0.0169 l 1.040227,0.012 -0.0198,1.1787 -0.01979,1.1787 -1.387989,0.0244 -1.387989,0.0244 -2.79e-4,0.28691 c -1.46e-4,0.1578 -0.007,1.32691 -0.01593,2.59803 -0.01005,1.48143 0.01639,2.32181 0.07361,2.34089 0.408878,0.13629 2.558641,1.77437 3.15753,2.40597 l 0.255912,0.2699 -0.646062,1.10644 -0.646063,1.10645 -0.579682,-0.61449 c -0.642607,-0.68119 -1.606362,-1.54167 -1.663131,-1.4849 -0.0201,0.0201 -0.06,0.17544 -0.08863,0.34519 -0.133426,0.79059 -0.528371,1.51191 -1.019163,1.86139 -0.258333,0.18395 -0.794567,0.40105 -1.24172,0.50272 -0.265894,0.0605 -2.554373,0.12916 -2.605321,0.0782 z m 1.446088,-2.35643 c 0.487012,-0.13529 0.713008,-0.43488 0.782915,-1.03783 0.03309,-0.28523 0.04724,-0.58285 0.03155,-0.6614 -0.06077,-0.30397 -1.51499,-0.5274 -2.069728,-0.31801 -0.359894,0.13584 -0.704495,0.50748 -0.761365,0.8211 -0.16284,0.89801 0.874611,1.51337 2.016608,1.19614 z m -7.615228,1.84624 c -0.03456,-0.20793 -0.07793,-0.45813 -0.09642,-0.55598 -0.122849,-0.64972 -0.21296,-1.22809 -0.263358,-1.69022 -0.03201,-0.29356 -0.07021,-0.59802 -0.08493,-0.67657 -0.01469,-0.0785 -0.05235,-0.45885 -0.08373,-0.84511 -0.03132,-0.38625 -0.07624,-0.92245 -0.09976,-1.19155 -0.05521,-0.63224 -0.05691,-4.0156 -0.0023,-4.53688 0.02312,-0.22018 0.06766,-0.67276 0.09897,-1.00574 0.03132,-0.33298 0.06959,-0.67325 0.08501,-0.75615 0.01539,-0.0829 0.05737,-0.3709 0.0933,-0.63999 0.03588,-0.2691 0.07734,-0.55426 0.09208,-0.63369 0.01477,-0.0794 0.05096,-0.2965 0.08051,-0.48241 0.08644,-0.54389 0.59169,-2.80792 0.67628,-3.03042 0.05745,-0.15118 0.130079,-0.19342 0.281483,-0.16376 0.112209,0.022 0.384158,0.0645 0.604324,0.0945 0.220174,0.0299 0.480377,0.07 0.578236,0.089 0.270479,0.0524 0.964288,0.14863 1.089735,0.15115 0.158069,0.003 0.143456,0.11787 -0.154837,1.21491 -0.387807,1.42627 -0.721606,3.12967 -0.866948,4.42404 -0.132174,1.17718 -0.06271,5.77223 0.09923,6.56542 0.01995,0.0978 0.06487,0.43811 0.0997,0.75615 0.03487,0.31802 0.07906,0.65828 0.09825,0.75614 0.01918,0.0979 0.05737,0.34129 0.08479,0.54098 0.02745,0.19968 0.100975,0.61089 0.163397,0.91381 0.109457,0.53115 0.10689,0.5523 -0.07199,0.59422 -0.218465,0.0512 -2.37818,0.4863 -2.413872,0.4863 -0.01345,0 -0.05266,-0.17013 -0.08721,-0.37807 z m 95.388407,-5.36552 c -0.0122,-0.0113 -2.74434,-0.0489 -6.07138,-0.0837 -3.32705,-0.0347 -6.34942,-0.0687 -6.71638,-0.0756 l -0.66718,-0.0124 -0.0445,-0.26715 c -0.0245,-0.14695 -0.0322,-0.73088 -0.0172,-1.29764 l 0.0272,-1.03049 2.06329,0.0277 c 1.13481,0.0152 3.40433,0.0462 5.04339,0.0689 1.63907,0.0226 3.87184,0.0435 4.96173,0.0465 l 1.98162,0.005 -0.0179,1.2899 c -0.01,0.70944 -0.0409,1.29323 -0.069,1.29731 -0.23035,0.0334 -0.45534,0.0482 -0.47371,0.0313 z M 47.957998,140.10355 c -0.586006,-2.69792 -1.410791,-4.94061 -2.501261,-6.80121 -0.175768,-0.29991 -0.307903,-0.55526 -0.29363,-0.56745 0.01431,-0.0122 0.488775,-0.32146 1.054446,-0.68724 l 1.028481,-0.66506 0.410247,0.63162 c 1.360617,2.09484 2.622626,5.49239 3.04686,8.20268 l 0.05722,0.36541 -1.011293,0.27828 c -0.556214,0.15306 -1.130948,0.30221 -1.277179,0.33145 l -0.265886,0.0532 z m 61.296232,0.97963 c -0.008,-0.008 -1.91651,-0.0352 -4.24055,-0.0615 -2.32404,-0.0263 -4.29559,-0.0501 -4.38122,-0.053 -0.14088,-0.005 -0.15567,-0.12819 -0.15567,-1.29842 v -1.29313 l 4.6036,0.0547 c 4.04323,0.0481 8.47513,0.1078 9.21006,0.12415 l 0.24749,0.005 -0.0108,1.2889 -0.0107,1.28891 -2.6236,-0.0213 c -1.44298,-0.0117 -2.63035,-0.0274 -2.63862,-0.035 z m 21.22677,-7.03699 c -0.0317,-0.0852 -0.29425,-0.69536 -0.58346,-1.35588 -0.28921,-0.66051 -0.54506,-1.26438 -0.56856,-1.34193 -0.0322,-0.10625 0.10682,-0.19644 0.56431,-0.36614 0.33385,-0.12384 0.638,-0.20755 0.6759,-0.18601 0.12985,0.0738 1.36979,2.85107 1.29793,2.9072 -0.0179,0.0139 -0.32406,0.13163 -0.68048,0.26152 -0.59878,0.21822 -0.65241,0.22439 -0.70564,0.0812 z m 2.33434,-1.58285 c -0.33047,-0.80982 -0.58624,-1.48421 -0.56837,-1.49865 0.0179,-0.0144 0.30543,-0.1301 0.63903,-0.25705 l 0.60654,-0.23082 0.27152,0.59524 c 0.3511,0.7697 0.96176,2.25185 0.96176,2.33433 0,0.0496 -1.16238,0.52934 -1.28261,0.52934 -0.0148,0 -0.2974,-0.66258 -0.62787,-1.47239 z m -66.547218,0.3858 c -0.134455,-0.35646 -0.418984,-1.0248 -0.632269,-1.48521 -0.213292,-0.4604 -0.377531,-0.84457 -0.364982,-0.85369 0.12363,-0.0898 1.265372,-0.47347 1.315972,-0.44219 0.06541,0.0404 1.216172,2.5995 1.262843,2.80836 0.01987,0.0888 -0.592703,0.38456 -1.187749,0.57342 -0.117853,0.0374 -0.200897,-0.0893 -0.393815,-0.60069 z m 2.559028,-1.02978 c -0.307254,-0.76862 -0.567457,-1.43261 -0.578236,-1.47553 -0.01075,-0.0429 0.248513,-0.18968 0.576187,-0.32613 0.4429,-0.18442 0.617694,-0.22147 0.68119,-0.14436 0.14869,0.18058 1.289628,2.82324 1.236145,2.86319 -0.04794,0.0358 -1.273986,0.48732 -1.314054,0.48393 -0.02343,-0.002 -0.293986,-0.63249 -0.601232,-1.4011 z"
       id="path1" /></g></svg>
