<?xml version="1.0" encoding="UTF-8" standalone="no"?>
<!-- Created with Inkscape (http://www.inkscape.org/) -->

<svg
   width="29.461592mm"
   height="148.15065mm"
   viewBox="0 0 29.461592 148.15065"
   version="1.1"
   id="svg1"
   xml:space="preserve"
   xmlns="http://www.w3.org/2000/svg"
   xmlns:svg="http://www.w3.org/2000/svg"><defs
     id="defs1" /><g
     id="layer1"
     transform="translate(-76.535828,-58.771569)"><path
       style="fill:#000000"
       d="m 78.129987,204.89021 v -2.032 h 2.17714 2.17715 v 2.032 2.032 h -2.17715 -2.17714 z m 9.24872,-3.66001 c -0.007,-1.51505 -0.28512,-2.12755 -1.15701,-2.5495 -0.27809,-0.13459 -0.45559,-0.1395 -4.22728,-0.11679 l -3.937,0.0237 v -2.14641 -2.14642 l 1.03414,-3.9e-4 c 0.56878,-2.2e-4 3.48871,-0.0218 6.48873,-0.048 l 5.45459,-0.0476 0.0245,0.53783 c 0.0135,0.2958 0.0246,1.22023 0.0246,2.05428 v 1.51645 l -0.85272,0.003 c -0.46899,0.002 -0.85271,0.0108 -0.85271,0.0204 0,0.01 0.1919,0.1342 0.42645,0.27668 0.58848,0.35748 1.33508,1.16352 1.49219,1.61097 0.0683,0.19465 0.14282,0.68865 0.16551,1.09777 l 0.0413,0.74385 -0.21,0.004 c -0.1155,0.002 -1.04275,0.0125 -2.06056,0.023 l -1.85057,0.0191 z m -5.58386,-8.36331 c -0.15966,-0.0576 -0.53522,-0.17037 -0.83457,-0.25064 -1.45463,-0.39004 -2.46387,-1.25942 -2.8535,-2.45804 -0.30453,-0.93683 -0.35235,-1.33304 -0.32095,-2.65953 0.0169,-0.71258 0.0491,-1.36093 0.0717,-1.44076 0.0226,-0.0798 0.0641,-0.24311 0.0921,-0.36285 0.34113,-1.45465 1.17458,-2.36957 2.66585,-2.92643 0.2295,-0.0857 0.41728,-0.13595 0.41728,-0.11167 0,0.0243 0.049,0.004 0.10886,-0.0462 0.0599,-0.0497 0.10886,-0.073 0.10886,-0.0517 0,0.0212 0.17145,-0.007 0.381,-0.0637 0.20955,-0.0563 0.54428,-0.11941 0.74385,-0.14028 0.19957,-0.0209 0.49349,-0.0569 0.65315,-0.0801 0.59992,-0.0872 2.77882,-0.0819 3.51971,0.009 2.80364,0.34247 4.3441,1.5301 4.7623,3.67155 0.15682,0.80303 0.17781,2.95682 0.0353,3.62259 -0.23022,1.07553 -0.82816,1.97447 -1.6366,2.46046 -0.47841,0.2876 -1.22992,0.54827 -1.78869,0.62043 -0.21593,0.0279 -0.47424,0.0631 -0.57402,0.0782 -0.4271,0.0648 -3.23722,0.11162 -3.31677,0.0552 -0.0654,-0.0464 -0.09,-0.83795 -0.0981,-3.15721 -0.008,-2.38032 -0.0315,-3.10325 -0.10037,-3.12969 -0.0493,-0.0189 -0.61771,-0.0389 -1.26319,-0.0443 -1.34513,-0.0114 -1.7031,0.0817 -1.96421,0.51109 -0.21757,0.35777 -0.18075,1.14449 0.0661,1.41218 0.29089,0.31546 0.66562,0.44601 1.32588,0.46192 0.32643,0.008 0.60034,0.0211 0.6087,0.0295 0.0138,0.0138 0.0421,3.80959 0.03,4.02232 -0.007,0.12087 -0.46574,0.10399 -0.83974,-0.0309 z m 6.16242,-4.15501 c 0.16535,-0.0395 0.39232,-0.17598 0.54289,-0.32655 0.24263,-0.24263 0.25884,-0.28787 0.26015,-0.72643 0.001,-0.43513 -0.0159,-0.48557 -0.24733,-0.7245 -0.3204,-0.3308 -0.82115,-0.47733 -1.63116,-0.47733 h -0.62383 v 1.14904 c 0,0.63198 0.0244,1.17343 0.0542,1.20323 0.0663,0.0663 1.25352,-0.004 1.64511,-0.0975 z m 2.64646,-7.14983 c -0.0282,-0.0282 -1.34666,-0.33757 -1.87831,-0.44072 -0.32073,-0.0622 -1.27328,-0.28539 -2.46743,-0.57807 -0.39435,-0.0967 -1.81627,-0.41216 -1.99571,-0.44282 -0.11975,-0.0205 -0.381,-0.0821 -0.58058,-0.137 -0.19957,-0.0549 -0.46082,-0.11566 -0.58057,-0.13504 -0.11974,-0.0194 -0.42998,-0.0887 -0.68943,-0.154 -0.25944,-0.0653 -0.56968,-0.13587 -0.68942,-0.15677 -0.11975,-0.0209 -0.381,-0.0829 -0.58058,-0.13779 -0.19957,-0.0549 -0.46082,-0.11388 -0.58057,-0.13108 -0.11974,-0.0172 -0.34834,-0.0671 -0.508,-0.11093 -0.50572,-0.13879 -1.51245,-0.36788 -1.83332,-0.4172 l -0.30932,-0.0475 0.019,-2.61527 0.019,-2.61527 0.18142,-0.0527 c 0.0998,-0.029 0.44269,-0.10793 0.762,-0.17542 0.31932,-0.0675 0.66222,-0.1517 0.762,-0.18715 0.0998,-0.0354 0.2794,-0.079 0.39915,-0.0968 0.11974,-0.0178 0.21771,-0.0375 0.21771,-0.0439 0,-0.0169 0.17351,-0.0606 0.56728,-0.14268 0.19226,-0.0401 0.37466,-0.0884 0.40534,-0.10735 0.0307,-0.019 0.31425,-0.0868 0.63015,-0.15084 0.31591,-0.064 0.73766,-0.16123 0.93723,-0.21607 0.77608,-0.21324 1.02515,-0.27779 1.27,-0.32917 0.1397,-0.0293 0.44994,-0.10703 0.68943,-0.1727 0.23948,-0.0657 0.54973,-0.13662 0.68943,-0.15765 0.1397,-0.021 0.35197,-0.0688 0.47171,-0.10622 0.36528,-0.11405 2.52342,-0.65118 2.79401,-0.69538 0.1397,-0.0228 0.35197,-0.0824 0.47171,-0.13232 0.18466,-0.077 0.0469,-0.0874 -0.90715,-0.0684 l -1.12485,0.0224 -7.4e-4,-0.92215 c -5.6e-4,-0.70511 -0.0316,-1.00755 -0.13173,-1.285 -0.27261,-0.75515 -0.41793,-0.93343 -0.99239,-1.21742 l -0.32657,-0.16144 -3.937,0.0204 -3.937,0.0204 v -2.14311 -2.1431 l 4.51757,-0.009 c 2.48466,-0.005 5.40748,-0.0191 6.49515,-0.0312 l 1.97757,-0.022 0.006,0.2671 c 0.0662,3.1486 0.0668,3.74208 0.004,3.78103 -0.0393,0.0243 -0.43304,0.0422 -0.87498,0.0399 -0.44193,-0.002 -0.80351,7.9e-4 -0.80351,0.007 0,0.006 0.20777,0.14565 0.46171,0.30988 0.25395,0.16423 0.6581,0.50853 0.89812,0.76511 0.5667,0.6058 0.74474,1.09465 0.74474,2.04482 v 0.66527 l -0.18557,-0.0355 -0.18557,-0.0355 0.0257,2.07754 c 0.0142,1.14264 0.008,2.07764 -0.014,2.07777 -0.0219,1.3e-4 -0.31732,0.0467 -0.65659,0.10356 -0.33928,0.0568 -0.76382,0.12191 -0.94343,0.14462 -0.63487,0.0803 -2.85661,0.39577 -3.12058,0.44314 -0.0998,0.0179 -0.34471,0.0511 -0.54428,0.0739 -0.19958,0.0227 -0.65678,0.0875 -1.016,0.14405 -0.35923,0.0565 -0.78378,0.11903 -0.94343,0.13891 -0.15966,0.0199 -0.3556,0.0496 -0.43543,0.066 -0.0798,0.0164 -0.38204,0.0533 -0.67157,0.082 -0.28954,0.0287 -0.54293,0.0788 -0.5631,0.11145 -0.0202,0.0326 0.18407,0.0803 0.45386,0.10595 0.26979,0.0256 0.58849,0.0606 0.70824,0.0776 0.11974,0.017 0.381,0.0495 0.58057,0.0721 0.19957,0.0226 0.70576,0.0863 1.12486,0.14146 0.4191,0.0552 0.95679,0.12189 1.19488,0.14827 0.23809,0.0264 0.49934,0.0613 0.58057,0.0777 0.0812,0.0163 0.30281,0.0458 0.4924,0.0654 0.1896,0.0196 0.49984,0.0518 0.68943,0.0714 0.18959,0.0196 0.4192,0.0506 0.51024,0.0688 0.18378,0.0368 1.31099,0.17341 2.06249,0.25 0.26746,0.0273 0.50171,0.065 0.52055,0.0838 0.0189,0.0188 0.045,1.02195 0.058,2.22912 l 0.0237,2.19485 -0.18748,-3e-5 c -0.10311,-2e-5 -0.2022,-0.0148 -0.22021,-0.0328 z m 8.8521,-11.14964 c -0.0429,-0.0265 -0.061,-1.60836 -0.0476,-4.17286 l 0.0215,-4.1302 0.745523,-0.005 0.74552,-0.005 -0.006,4.15933 c -0.004,3.1707 -0.0262,4.16111 -0.0924,4.16686 -0.35041,0.0304 -1.310873,0.0207 -1.366933,-0.0139 z m 4.727303,-8.6525 c 0,-0.008 -0.062,-0.18518 -0.13785,-0.3926 -0.14886,-0.40728 -0.12783,-0.46366 0.21042,-0.56402 0.21024,-0.0624 0.88873,-0.35995 1.17904,-0.5171 0.19221,-0.10404 0.20225,-0.10063 0.28118,0.0956 0.045,0.11194 0.11537,0.27589 0.15633,0.36434 0.0738,0.15924 -0.025,0.38347 -0.16894,0.38347 -0.0322,0 -0.26501,0.0948 -0.51726,0.21069 -0.53618,0.24632 -1.00292,0.44159 -1.00292,0.41958 z m -22.438423,-0.30546 c -0.0426,-0.0426 -0.93533,-0.2967 -1.23011,-0.35015 -0.41903,-0.076 -1.32485,-0.59202 -1.73182,-0.9866 -0.5537,-0.53683 -0.81776,-0.98913 -1.06159,-1.81835 -0.19072,-0.6486 -0.2027,-0.77108 -0.20227,-2.06828 2.5e-4,-0.75837 0.0227,-1.47683 0.05,-1.59657 0.19864,-0.87326 0.44209,-1.46688 0.81371,-1.98415 0.27048,-0.37649 1.05761,-1.02757 1.24229,-1.02757 0.0559,0 0.10167,-0.0262 0.10167,-0.0582 0,-0.0597 0.55963,-0.2811 0.85298,-0.33751 0.09,-0.0173 0.19103,-0.0484 0.22459,-0.0692 0.0336,-0.0207 0.35185,-0.1016 0.7073,-0.17968 1.54109,-0.33854 4.30466,-0.35475 5.72627,-0.0336 1.9304,0.4361 3.14153,1.40371 3.66481,2.92791 0.16319,0.47534 0.34916,2.1192 0.32429,2.86657 -0.0252,0.75864 -0.0431,0.88762 -0.2198,1.59133 -0.3389,1.34933 -1.35114,2.37017 -2.65945,2.68205 -1.01772,0.2426 -0.9544,0.23616 -3.00374,0.30533 -1.27558,0.0431 -1.54166,0.0347 -1.59474,-0.0501 -0.0615,-0.0983 -0.0835,-1.04506 -0.10389,-4.48113 -0.005,-0.8919 -0.0262,-1.66481 -0.0464,-1.71758 -0.058,-0.15124 -2.37233,-0.15106 -2.73438,2.2e-4 -0.50083,0.20926 -0.72631,0.60174 -0.69086,1.20256 0.0408,0.69185 0.55338,1.05461 1.52313,1.07798 0.33135,0.008 0.61074,0.0228 0.62086,0.0329 0.0334,0.0334 0.0699,3.92647 0.0377,4.01912 -0.0305,0.0876 -0.53223,0.1309 -0.61046,0.0527 z m 5.94427,-4.23707 c 0.53613,-0.15544 0.81754,-0.52029 0.81825,-1.06088 0.001,-0.79977 -0.69806,-1.23006 -1.92028,-1.18192 l -0.57818,0.0228 0.008,0.27215 c 0.004,0.14968 0.0115,0.68504 0.0157,1.1897 l 0.008,0.91756 0.70758,-0.0458 c 0.38916,-0.0252 0.81267,-0.0763 0.94113,-0.11355 z m 8.58371,3.02567 c -0.0922,-0.12465 -0.34453,-0.43525 -0.56083,-0.69021 -0.29803,-0.35133 -0.37431,-0.48642 -0.31498,-0.55791 0.17447,-0.21022 1.62081,-1.01515 2.29111,-1.27506 0.0798,-0.031 0.27577,-0.10686 0.43543,-0.16867 0.15965,-0.0618 0.48622,-0.16708 0.72571,-0.23392 0.23949,-0.0668 0.5334,-0.15208 0.65314,-0.18943 0.26733,-0.0834 1.110873,-0.25139 1.585003,-0.31571 0.1932,-0.0262 0.4218,-0.0634 0.508,-0.0826 0.0862,-0.0192 0.33633,-0.051 0.55586,-0.0706 0.21953,-0.0196 0.46446,-0.0504 0.54429,-0.0685 0.0798,-0.018 0.67582,-0.0541 1.32442,-0.0801 l 1.17929,-0.0473 v 0.84555 0.84556 l -0.78014,0.006 c -0.42908,0.003 -0.82945,0.0154 -0.88972,0.0273 -0.10304,0.0205 -0.28353,0.0391 -1.45071,0.1497 -0.25944,0.0246 -0.66766,0.0887 -0.90714,0.14249 -0.23949,0.0538 -0.61505,0.13603 -0.83458,0.18278 -0.657903,0.1401 -1.226243,0.35014 -2.068283,0.76436 -0.8099,0.39841 -0.91819,0.45894 -1.30629,0.73017 -0.47131,0.32939 -0.50671,0.33383 -0.68958,0.0865 z m 7.668493,-0.47412 c -0.2046,-0.40615 -0.20331,-0.55474 0.006,-0.65315 0.10596,-0.0499 0.21641,-0.0907 0.24545,-0.0907 0.029,0 0.30061,-0.11447 0.60349,-0.25437 0.30288,-0.1399 0.58495,-0.26237 0.62682,-0.27214 0.0937,-0.0219 0.37569,0.683 0.30157,0.75385 -0.0691,0.0661 -1.54062,0.71609 -1.62112,0.71609 -0.0337,0 -0.10659,-0.0898 -0.16188,-0.19957 z m 0.72873,-4.70545 c -0.008,-0.007 -0.53758,-0.0346 -1.17621,-0.0617 -1.12694,-0.0479 -1.57358,-0.0819 -1.89843,-0.14468 -0.0862,-0.0166 -0.3148,-0.0509 -0.508,-0.0761 -1.403303,-0.18325 -2.919733,-0.74327 -4.235593,-1.5642 -0.7056,-0.44021 -1.55855,-1.07833 -1.55855,-1.166 0,-0.0377 0.2414,-0.3427 0.53644,-0.67787 l 0.53644,-0.6094 0.58842,0.46846 c 0.32363,0.25765 0.62107,0.49213 0.66099,0.52106 0.15926,0.11543 0.98475,0.53145 1.2461,0.62799 0.15284,0.0564 0.45751,0.17086 0.67704,0.25423 0.21953,0.0834 0.660403,0.21351 0.979713,0.28921 0.98184,0.23275 1.1947,0.26571 2.14086,0.33152 0.37919,0.0264 0.79173,0.0596 0.91676,0.0738 0.12503,0.0142 0.54239,0.0343 0.92746,0.0446 l 0.70014,0.0186 -0.0203,0.83583 -0.0203,0.83583 -0.23893,0.006 c -0.13141,0.003 -0.24571,4e-5 -0.254,-0.007 z m -22.838783,-5.44073 c -0.58084,-0.093 -1.10598,-0.21706 -1.34257,-0.31712 -1.47409,-0.62344 -2.24901,-1.45362 -2.71442,-2.90799 -0.29595,-0.92481 -0.40884,-1.81634 -0.39975,-3.15686 0.0231,-3.40709 1.57682,-5.16643 4.6926,-5.31363 l 0.85271,-0.0403 v 2.15082 2.15082 l -0.19957,0.003 c -0.82784,0.0109 -1.59148,0.18225 -1.87786,0.42148 -0.56736,0.47396 -0.50398,1.69026 0.11524,2.2113 0.12742,0.10721 0.30263,0.21099 0.38936,0.23061 0.57396,0.12986 0.80601,0.16771 0.91005,0.14846 0.0652,-0.0121 0.26439,-0.0462 0.44269,-0.0758 0.6415,-0.10662 1.00761,-0.46384 1.37549,-1.34208 0.16253,-0.388 0.28352,-0.66416 0.62002,-1.41514 0.0894,-0.19958 0.3006,-0.67903 0.4693,-1.06545 0.62704,-1.43634 1.3568,-2.27104 2.44741,-2.79934 0.73021,-0.35372 1.60839,-0.52166 2.56501,-0.49054 1.91243,0.0622 2.95561,0.5111 4.07283,1.75256 0.24188,0.26878 0.58687,0.95062 0.7825,1.54654 0.46073,1.40347 0.50058,3.88874 0.0786,4.90251 -0.48309,1.16062 -1.09382,1.84829 -2.05772,2.31695 -0.70185,0.34125 -1.19559,0.46604 -2.04763,0.51755 -0.39585,0.0239 -0.7595,0.0558 -0.80812,0.0709 -0.0486,0.0151 -0.11014,-0.008 -0.13673,-0.0508 -0.0266,-0.043 -0.0628,-1.00498 -0.0804,-2.13769 l -0.032,-2.05947 h 0.58603 c 0.70074,0 0.6122,0.0178 1.05661,-0.21207 0.73784,-0.3816 0.87054,-1.13326 0.32771,-1.85635 -0.29539,-0.39348 -1.27963,-0.52971 -1.90144,-0.26317 -0.48074,0.20607 -0.71439,0.53403 -1.43931,2.02029 -0.3658,0.74997 -0.81645,1.67383 -1.00144,2.05301 -0.97469,1.99788 -1.9466,2.8526 -3.4232,3.01045 -0.82428,0.0881 -1.7605,0.0869 -2.32204,-0.003 z m 17.63506,-4.0996 -2e-4,-4.17648 0.761963,0.004 0.76196,0.004 4e-5,4.18844 4e-5,4.18845 -0.7618,-0.0156 -0.761793,-0.0156 z m 2.666803,-5.42391 -0.635,-0.021 v -0.75917 -0.75917 l -0.83457,-0.009 c -0.45902,-0.005 -0.859073,-0.0148 -0.889003,-0.0219 -0.0299,-0.007 -0.25038,-0.0414 -0.48986,-0.0763 -0.23949,-0.035 -0.45176,-0.0686 -0.47172,-0.0748 -0.0199,-0.006 -0.13425,-0.0363 -0.254,-0.0669 -0.49235,-0.12592 -1.3214,-0.60318 -1.76033,-1.0134 -0.62798,-0.58689 -1.21961,-1.68977 -1.34722,-2.51138 -0.0217,-0.1397 -0.0587,-0.33564 -0.0822,-0.43543 -0.0235,-0.0998 -0.0627,-0.4282 -0.0872,-0.72982 l -0.0444,-0.54839 0.5721,-0.0871 c 0.98783,-0.15037 0.95223,-0.16465 1.00623,0.40373 0.19063,2.00679 0.99062,3.08828 2.57759,3.48455 0.0599,0.0149 0.55789,0.0454 1.106713,0.0677 l 0.99786,0.0405 0.009,-0.6443 c 0.005,-0.35437 0.0127,-0.90556 0.0173,-1.22488 l 0.008,-0.58057 -1.41429,-0.0363 -1.414283,-0.0363 -0.0206,-0.7786 -0.0206,-0.7786 1.435733,-0.0197 1.43572,-0.0197 0.0111,-0.61686 c 0.006,-0.33927 0.0143,-0.69033 0.0182,-0.78014 0.007,-0.15798 0.0306,-0.16329 0.73275,-0.16329 h 0.72572 v 0.79829 0.79828 h 1.18966 c 1.28788,0 1.26046,-0.009 1.23656,0.41729 -0.007,0.12972 -0.0173,0.44813 -0.0223,0.70757 l -0.009,0.47172 h -1.19742 -1.19743 v 1.23371 1.23371 l 0.92528,0.007 c 0.50891,0.004 1.08041,0.009 1.27,0.0121 l 0.34472,0.005 v 0.8043 0.80431 l -1.27,-0.0224 -1.27,-0.0224 v 0.75777 c 0,0.8807 0.0665,0.82157 -0.889,0.79001 z m -24.583573,-5.19252 v -1.98407 l 0.18484,-0.0842 c 0.10167,-0.0463 0.40374,-0.0853 0.67129,-0.0865 l 0.48644,-0.002 -0.19431,-0.16099 c -0.10688,-0.0885 -0.27969,-0.22069 -0.38403,-0.29366 -0.26184,-0.18311 -0.65611,-0.79738 -0.84644,-1.31876 -0.13483,-0.36934 -0.15993,-0.59615 -0.16537,-1.49429 l -0.006,-1.05886 0.28465,-0.5609 c 0.31854,-0.62769 0.66056,-0.96762 1.27742,-1.26964 0.74712,-0.36578 1.24334,-0.46131 2.39307,-0.4607 1.51334,8e-4 2.11402,0.19268 2.81372,0.89882 0.26169,0.26409 0.4817,0.59303 0.69625,1.04098 0.34547,0.72127 0.34199,0.71069 0.81193,2.46916 0.39048,1.46114 0.44765,1.62247 0.64444,1.81857 0.41069,0.40925 1.42125,0.37105 1.84862,-0.0699 0.18287,-0.18868 0.23103,-0.30926 0.26482,-0.66308 0.0784,-0.82109 -0.31382,-1.19446 -1.25479,-1.19446 h -0.52728 l -0.009,-1.05229 c -0.005,-0.57876 -0.009,-1.10127 -0.009,-1.16114 0,-0.0599 0.004,-0.50075 0.009,-0.97972 l 0.009,-0.87085 h 0.33573 c 0.89725,0 2.08582,0.45669 2.7036,1.03883 0.37146,0.35003 1.11426,1.55996 1.01993,1.66134 -0.0109,0.0117 0.0201,0.0958 0.0688,0.18687 0.16311,0.30477 0.30126,1.33367 0.26521,1.97524 -0.10874,1.93535 -0.2098,2.57032 -0.54124,3.40098 -0.34308,0.85979 -0.80419,1.31316 -1.6613,1.63341 -0.82308,0.30753 -1.03743,0.32002 -6.3887,0.37234 -3.37116,0.0329 -4.13401,0.0587 -4.34501,0.14691 -0.48119,0.20105 -0.45592,0.30506 -0.45592,-1.87713 z m 6.38628,-2.29056 c 0,-0.0391 -0.0269,-0.0877 -0.0597,-0.10801 -0.0328,-0.0203 -0.18788,-0.35696 -0.34452,-0.74814 -0.41745,-1.04251 -0.92502,-1.52339 -1.66404,-1.57651 -0.60285,-0.0433 -1.35882,0.31362 -1.52954,0.72222 -0.31762,0.76016 0.079,1.4629 0.94897,1.68156 0.3885,0.0976 2.64886,0.12228 2.64886,0.0289 z m 11.72487,-5.99043 c -0.22205,-0.33717 -0.40138,-0.65558 -0.3985,-0.70757 0.003,-0.052 0.37026,-0.33232 0.81643,-0.62296 0.44616,-0.29064 1.07246,-0.73881 1.39177,-0.99592 0.31932,-0.25712 0.59738,-0.46835 0.61793,-0.46942 0.0377,-0.002 0.86979,1.1246 0.86979,1.17759 0,0.12658 -2.66528,2.21433 -2.84385,2.22762 -0.0274,0.002 -0.23152,-0.27216 -0.45357,-0.60934 z m -14.01087,-1.50091 c -2.28272,-0.16362 -3.72524,-1.12832 -4.33904,-2.90178 -0.14061,-0.40626 -0.15591,-0.56631 -0.1241,-1.29797 0.0322,-0.74101 0.0604,-0.88214 0.25126,-1.25885 0.24553,-0.48458 0.67866,-0.95395 1.09553,-1.18722 l 0.28607,-0.16008 -0.70757,-0.003 -0.70757,-0.003 -0.007,-1.07043 c -0.004,-0.58874 -0.0196,-1.5045 -0.0343,-2.03504 -0.0199,-0.71632 -0.004,-0.97175 0.0619,-0.99237 0.0488,-0.0153 3.71368,-0.0489 8.14417,-0.0746 4.43048,-0.0258 8.32485,-0.0527 8.65415,-0.0599 l 0.59873,-0.0131 -1e-5,2.12271 -1e-5,2.12272 -2.01386,0.01 c -1.10762,0.005 -2.34209,0.0134 -2.74326,0.0181 l -0.7294,0.009 0.52775,0.51283 c 0.78346,0.76132 1.12625,1.63768 1.07679,2.75289 -0.0382,0.86242 -0.2876,1.42786 -0.88532,2.00766 -0.51042,0.4951 -1.22108,0.8426 -2.19956,1.07554 -0.17962,0.0428 -0.39189,0.094 -0.47172,0.11383 -0.0798,0.0198 -0.39007,0.0681 -0.68942,0.10714 -0.29936,0.0391 -0.62593,0.087 -0.72572,0.10658 -0.56718,0.11108 -3.28352,0.17372 -4.318,0.0996 z m 5.3172,-4.53722 c 0.41538,-0.19871 0.56332,-0.4037 0.64073,-0.88781 0.16252,-1.01635 -0.76949,-1.32083 -3.92593,-1.28256 -2.34498,0.0284 -2.70361,0.1139 -3.08806,0.73595 -0.12539,0.20289 -0.15108,0.32913 -0.12111,0.59506 0.0577,0.51181 0.42611,0.78713 1.24975,0.93395 0.11974,0.0213 0.2321,0.0529 0.2497,0.07 0.0176,0.0172 1.06262,0.0283 2.32228,0.0248 l 2.2903,-0.006 z m 17.219293,2.6779 c -0.25568,-0.54982 -0.24894,-0.57087 0.23966,-0.74908 0.4204,-0.15333 0.59099,-0.22935 1.08673,-0.48428 0.11253,-0.0579 0.21287,-0.0939 0.22298,-0.08 0.036,0.0494 0.26186,0.68414 0.26186,0.73596 0,0.0708 -1.5146,0.77697 -1.66636,0.77697 -0.0286,0 -0.0938,-0.0898 -0.14487,-0.19957 z m -7.369063,-1.56975 c -0.37593,-0.20976 -0.90714,-0.54823 -0.90714,-0.57801 0,-0.0128 0.26125,-0.2934 0.58057,-0.62363 0.31931,-0.33022 0.58012,-0.62144 0.57957,-0.64715 -5.5e-4,-0.0257 -0.18523,-0.10528 -0.4104,-0.17682 -0.5715,-0.18158 -0.77412,-0.34831 -0.99807,-0.8213 -0.17596,-0.37164 -0.19488,-0.49354 -0.20017,-1.28981 -0.005,-0.69014 0.0224,-0.94967 0.12552,-1.20596 0.28538,-0.70941 0.53253,-0.98124 1.15118,-1.2661 0.21676,-0.0998 0.39429,-0.12188 0.75055,-0.0933 0.25665,0.0206 0.50281,0.0736 0.54703,0.11785 0.0442,0.0442 0.13224,0.0804 0.1956,0.0804 0.19355,0 0.78158,0.66507 0.97402,1.10163 0.15941,0.36164 0.17986,0.50184 0.16672,1.14303 l -0.015,0.73084 1.282923,-4e-5 1.28293,-4e-5 -0.001,-1.03414 c -5.5e-4,-0.56878 0.002,-1.22192 0.005,-1.45143 l 0.006,-0.41728 h 0.72571 0.72571 v 1.45143 1.45142 h 1.05229 1.05229 l 0.01,0.27215 c 0.014,0.38273 -0.0168,1.28288 -0.0449,1.31094 -0.0129,0.0129 -0.47563,0.0293 -1.02839,0.0366 l -1.005,0.0132 -0.0204,0.85272 -0.0204,0.85271 h -0.74273 -0.74273 l 0.001,-0.85271 0.001,-0.85272 -1.52425,-0.0195 -1.524253,-0.0195 -0.25375,0.37344 c -0.13956,0.20539 -0.32501,0.47934 -0.4121,0.60878 -0.1943,0.28877 -0.96457,1.12717 -1.02875,1.11975 -0.0256,-0.003 -0.17724,-0.0783 -0.3369,-0.16736 z m 1.18578,-3.71324 c 0.0463,-0.10166 0.0842,-0.38176 0.0842,-0.62244 0,-0.3869 -0.0246,-0.46217 -0.21213,-0.64973 -0.2788,-0.2788 -0.63343,-0.28938 -0.88061,-0.0263 -0.14622,0.15564 -0.17482,0.26086 -0.17593,0.6471 -0.001,0.38928 0.0261,0.4905 0.17461,0.64871 0.14515,0.15467 0.24151,0.18746 0.55078,0.18746 0.33125,0 0.38463,-0.0215 0.45906,-0.18484 z m 6.033283,3.55942 c -0.0389,-0.0998 -0.10164,-0.26049 -0.13937,-0.35712 -0.0573,-0.14689 -0.0399,-0.19447 0.10631,-0.29029 0.0962,-0.063 0.20552,-0.11459 0.24294,-0.11459 0.0374,0 0.34066,-0.12789 0.67384,-0.28419 0.33319,-0.1563 0.63204,-0.25904 0.66413,-0.22831 0.0321,0.0307 0.10449,0.20921 0.1609,0.39664 l 0.10256,0.34077 -0.30604,0.1338 c -0.16833,0.0736 -0.52952,0.23525 -0.80267,0.35925 -0.27314,0.12401 -0.52704,0.22546 -0.56422,0.22546 -0.0372,0 -0.0995,-0.0816 -0.13838,-0.18142 z m 0.72751,-6.6782 c -0.5402,-0.14478 -1.30424,-0.31599 -1.99571,-0.44719 -0.78904,-0.14972 -3.926103,-0.16838 -4.862293,-0.0289 -0.31931,0.0476 -0.72753,0.10257 -0.90714,0.12222 -0.17962,0.0197 -0.40822,0.0542 -0.508,0.0769 -0.60028,0.13604 -0.63912,0.12686 -0.71737,-0.16959 -0.14513,-0.54986 -0.29011,-1.21731 -0.26901,-1.23841 0.0119,-0.0119 0.57337,-0.10454 1.24782,-0.20599 1.75289,-0.26365 5.003223,-0.30019 6.161133,-0.0693 0.11974,0.0239 0.36467,0.0616 0.54429,0.0837 0.17961,0.0222 0.50618,0.0842 0.72571,0.13783 0.21953,0.0536 0.54886,0.11899 0.73185,0.14523 0.53313,0.0765 0.52799,0.065 0.39147,0.8769 -0.0664,0.39502 -0.14222,0.73755 -0.16846,0.76118 -0.0263,0.0236 -0.19467,0.004 -0.37429,-0.0446 z m -27.364193,-2.81052 c -0.003,-0.36921 -0.0209,-1.27912 -0.0407,-2.02204 l -0.036,-1.35076 0.24029,-0.0521 c 0.13216,-0.0287 0.43623,-0.0698 0.67572,-0.0914 0.23948,-0.0216 0.44662,-0.0492 0.46031,-0.0613 0.0137,-0.0121 -0.0729,-0.0727 -0.19251,-0.1345 -0.51792,-0.26783 -0.99267,-0.90486 -1.22804,-1.64782 -0.093,-0.29367 -0.12415,-0.65393 -0.12469,-1.44361 -7e-4,-1.02816 0.004,-1.0631 0.22463,-1.524 0.42978,-0.89967 1.29799,-1.50147 2.49315,-1.72813 0.46426,-0.088 2.22486,-0.0627 2.64886,0.0382 0.91621,0.21791 1.5822,0.79552 2.05929,1.78602 0.33678,0.69922 0.43688,0.98886 0.69412,2.00852 0.10572,0.4191 0.23991,0.90896 0.2982,1.08857 0.0583,0.17962 0.1058,0.38503 0.10561,0.45647 -5.3e-4,0.19149 0.24809,0.64253 0.46663,0.84653 0.15163,0.14153 0.28743,0.18429 0.66094,0.20807 0.77935,0.0496 1.1988,-0.19885 1.34178,-0.79487 0.1024,-0.42685 0.049,-0.77653 -0.15886,-1.04083 -0.20299,-0.25805 -0.42786,-0.34135 -1.0628,-0.39368 l -0.52995,-0.0437 -0.0303,-1.9884 -0.0303,-1.9884 0.70537,0.046 c 1.01071,0.0659 1.59181,0.29886 2.27595,0.91239 0.22519,0.20196 0.529,0.54732 0.67513,0.76747 0.26523,0.39959 0.59017,1.18592 0.66028,1.59781 0.0204,0.11974 0.0659,0.381 0.10122,0.58057 0.064,0.362 0.0497,1.34449 -0.0296,2.032 -0.023,0.19957 -0.0569,0.50982 -0.0754,0.68943 -0.0347,0.33813 -0.0438,0.38798 -0.17444,0.95879 -0.19013,0.83046 -0.64409,1.55899 -1.21707,1.95321 -0.2985,0.20538 -0.9398,0.47384 -1.29299,0.54127 -0.0798,0.0152 -0.22679,0.0431 -0.32657,0.0619 -0.0998,0.0188 -2.22859,0.0544 -4.73068,0.079 -4.20253,0.0414 -4.58417,0.0555 -5.00743,0.18419 -0.252,0.0766 -0.46634,0.13958 -0.47632,0.13988 -0.01,3.1e-4 -0.0203,-0.30152 -0.0229,-0.67073 z m 6.30327,-3.6436 c 0.0186,-0.0186 -0.0357,-0.18167 -0.12063,-0.36239 -0.0849,-0.18071 -0.15445,-0.34444 -0.15445,-0.36383 0,-0.0194 -0.0948,-0.24018 -0.21066,-0.49065 -0.22054,-0.47671 -0.60812,-0.90271 -1.0013,-1.10053 -0.29844,-0.15016 -0.83905,-0.14451 -1.25954,0.0132 -0.64947,0.24353 -0.86678,0.52024 -0.86678,1.1037 0,0.75278 0.45258,1.13459 1.45143,1.22445 0.5702,0.0513 2.10368,0.0343 2.16193,-0.0239 z m 15.65246,2.74352 c -0.0674,-0.23339 -0.16722,-0.55132 -0.22174,-0.7065 -0.11309,-0.3219 -0.0857,-0.40728 0.13082,-0.40728 0.0839,0 0.31878,-0.0468 0.52186,-0.10408 0.20308,-0.0572 0.581513,-0.15934 0.840953,-0.22687 0.59604,-0.15513 1.10466,-0.32843 1.1938,-0.40675 0.0379,-0.0333 0.11247,-0.0606 0.16568,-0.0606 0.12284,0 1.68637,-0.77644 1.83938,-0.91343 0.19186,-0.17177 0.31226,-0.11786 0.5391,0.24142 0.11945,0.18919 0.2917,0.46292 0.38277,0.60827 l 0.16558,0.26429 -0.38512,0.25563 c -0.80577,0.53484 -2.39386,1.25832 -3.32062,1.51275 -0.53945,0.1481 -1.208823,0.30051 -1.463643,0.33326 l -0.26621,0.0342 z m 1.763513,-2.45683 c -0.0109,-0.009 -0.50976,-0.0371 -1.10848,-0.0629 -0.598713,-0.0257 -1.284513,-0.0813 -1.524003,-0.12352 -0.23948,-0.0422 -0.54973,-0.0935 -0.68943,-0.11409 -0.74487,-0.10957 -1.6195,-0.46706 -1.98405,-0.81093 -0.51257,-0.48352 -0.59148,-1.16939 -0.22132,-1.92382 0.0554,-0.113 0.1008,-0.2518 0.1008,-0.30843 0,-0.0566 0.0264,-0.10298 0.0586,-0.10298 0.0322,0 0.11624,-0.13063 0.18668,-0.29028 0.13356,-0.30273 0.25067,-0.34915 0.56773,-0.22503 0.0917,0.0359 0.3708,0.1227 0.62027,0.19292 0.24946,0.0702 0.45357,0.13389 0.45357,0.14152 0,0.008 -0.10971,0.22288 -0.24381,0.47836 -0.29669,0.56525 -0.35518,0.79248 -0.24178,0.93927 0.11146,0.14427 0.51565,0.32702 0.88473,0.40001 0.15966,0.0316 0.30662,0.0623 0.32657,0.0683 0.0342,0.0103 0.54873,0.0745 1.19743,0.14949 0.554473,0.0641 1.890383,0.0411 2.093073,-0.0359 0.36292,-0.13798 0.41065,-0.23858 0.41065,-0.8656 v -0.58131 l -0.34472,-0.05 c -0.18959,-0.0275 -0.41003,-0.0631 -0.48985,-0.079 -0.0798,-0.0159 -0.27578,-0.0462 -0.43543,-0.0673 -0.59581,-0.0787 -2.116773,-0.47872 -2.612573,-0.68712 -0.0798,-0.0336 -0.32476,-0.13444 -0.54429,-0.22419 -0.78283,-0.32006 -2.16987,-1.10811 -2.28865,-1.30031 -0.0417,-0.0675 0.20854,-0.43679 0.62703,-0.9254 0.25992,-0.30346 0.26259,-0.30454 0.43543,-0.17547 0.40754,0.30434 2.05156,1.08507 2.85905,1.35774 0.876763,0.29606 2.302643,0.58428 2.646163,0.53487 0.1755,-0.0252 0.17701,-0.0324 0.17786,-0.83746 l 8.5e-4,-0.81201 0.72752,0.0191 0.72752,0.0191 9e-4,0.8987 9e-4,0.8987 1.05229,0.004 c 0.57875,0.002 1.0902,0.0281 1.13653,0.0578 0.0463,0.0298 0.0733,0.11113 0.06,0.18082 -0.0133,0.0697 -0.0268,0.3976 -0.0298,0.72869 l -0.006,0.60198 -1.10671,-0.0107 -1.10672,-0.0107 -0.0398,0.86017 c -0.0511,1.10403 -0.16497,1.33051 -0.88527,1.7614 -0.21964,0.13139 -1.3717,0.39521 -1.44983,0.33201 z m -23.793683,-8.40199 c -0.004,-0.846894 -0.0199,-2.552174 -0.0361,-3.789524 l -0.0295,-2.24971 0.63485,-0.28629 c 0.34917,-0.15746 0.97124,-0.44321 1.38239,-0.635 0.41114,-0.19179 0.76134,-0.34871 0.77822,-0.34871 0.0169,0 0.26555,-0.1143 0.5526,-0.254 0.28705,-0.1397 0.5655,-0.254 0.61878,-0.254 0.0533,0 0.0969,-0.0327 0.0969,-0.0726 0,-0.0399 0.0429,-0.0726 0.0952,-0.0726 0.0524,0 0.22382,-0.0615 0.381,-0.13665 0.28583,-0.13668 1.02957,-0.47864 1.6102,-0.74034 0.16963,-0.0765 0.44722,-0.20157 0.61686,-0.27803 0.16963,-0.0765 0.65132,-0.29892 1.07042,-0.49436 0.4191,-0.19544 0.90522,-0.42142 1.08026,-0.50218 l 0.31825,-0.14683 -0.57225,-0.31436 c -0.31474,-0.17289 -0.75187,-0.41126 -0.9714,-0.52971 -0.21953,-0.11844 -0.43017,-0.24361 -0.46808,-0.27816 -0.0379,-0.0345 -1.69527,-0.0628 -3.683,-0.0628 h -3.61406 v -3.37457 -3.374574 l 1.07043,-0.0071 c 0.58874,-0.0039 1.87053,-0.01652 2.84843,-0.02804 0.9779,-0.01152 5.01106,-0.04174 8.96257,-0.06715 3.95151,-0.02541 8.548,-0.06083 10.214433,-0.07871 l 3.02985,-0.03251 0.004,0.632898 c 0.002,0.348093 0.0206,1.865986 0.0406,3.373086 0.0295,2.21927 0.0184,2.74602 -0.0586,2.77082 -0.0523,0.0169 -2.32728,0.0472 -5.055583,0.0674 -2.7283,0.0202 -4.97153,0.0477 -4.98494,0.0612 -0.0134,0.0134 0.22674,0.1361 0.53368,0.27264 0.50465,0.22447 1.00979,0.45726 2.39749,1.10484 0.25329,0.11821 0.59619,0.27348 0.762,0.34506 0.3016,0.13021 0.87142,0.39256 1.82546,0.84046 0.2794,0.13117 0.7366,0.34277 1.016,0.47023 0.279403,0.12745 0.720273,0.32918 0.979713,0.4483 0.25945,0.11911 0.61867,0.28354 0.79829,0.36539 0.17961,0.0818 0.55702,0.25871 0.83867,0.39301 0.28166,0.13431 0.54292,0.24492 0.58058,0.24581 0.0376,8.9e-4 0.14056,0.058 0.22869,0.127 0.16021,0.12537 0.16023,0.12575 0.20486,3.66324 0.0375,2.972504 0.0287,3.537864 -0.055,3.537864 -0.0548,0 -0.13065,-0.0289 -0.16857,-0.0642 -0.0379,-0.0353 -0.29755,-0.18425 -0.57695,-0.33094 -0.2794,-0.1467 -0.7366,-0.396704 -1.016,-0.555564 -0.2794,-0.15887 -0.60597,-0.337 -0.72571,-0.39586 -0.11974,-0.0589 -0.2667,-0.13924 -0.32657,-0.17864 -0.25479,-0.16768 -1.970773,-1.08734 -2.028853,-1.08734 -0.035,0 -0.0745,-0.0245 -0.0878,-0.0544 -0.0133,-0.0299 -0.13849,-0.11501 -0.27819,-0.18904 -0.1397,-0.074 -0.61323,-0.33145 -1.05228,-0.57203 -0.43906,-0.24058 -1.01056,-0.5535 -1.27,-0.69538 -0.25945,-0.14188 -0.60235,-0.33199 -0.762,-0.42247 -0.15966,-0.0905 -0.40459,-0.22232 -0.54429,-0.29296 -0.1397,-0.0707 -0.54791,-0.29434 -0.90714,-0.4971 -0.35923,-0.20276 -0.70213,-0.39148 -0.762,-0.41938 -0.0599,-0.0279 -0.3048,-0.16152 -0.54429,-0.29692 -0.23948,-0.13541 -0.45176,-0.22457 -0.47171,-0.19814 -0.02,0.0264 -0.34653,0.2021 -0.72572,0.39037 -0.37918,0.18826 -1.26093,0.63961 -1.95942,1.00298 -0.6985,0.36337 -2.00479,1.03736 -2.90286,1.49775 -0.89807,0.4604 -1.95943,1.00892 -2.35857,1.21895 -0.39914,0.21002 -1.32987,0.69193 -2.06829,1.07091 -0.73841,0.37897 -1.76264,0.906714 -2.27606,1.172764 -1.77152,0.91795 -1.96983,1.0194 -2.09636,1.07247 -0.11852,0.0497 -0.12745,-0.0496 -0.13364,-1.48654 z m 1.56053,-21.877733 c -0.12995,-0.212349 0.009,-0.573154 0.25448,-0.658566 0.11621,-0.04051 0.23039,-0.05455 0.25374,-0.0312 0.0233,0.02335 0.0425,3.57e-4 0.0425,-0.0511 0,-0.0694 0.0248,-0.07296 0.0961,-0.01382 0.0701,0.05822 0.1191,0.0567 0.18143,-0.0056 0.0648,-0.0648 0.0854,-0.06494 0.0854,-5.51e-4 0,0.04664 0.0449,0.06756 0.0999,0.04648 0.19296,-0.07405 2.07725,-0.06807 2.07839,0.0066 6e-4,0.03991 0.0292,0.02826 0.0635,-0.02589 0.0455,-0.07189 0.0764,-0.07584 0.1142,-0.01462 0.0391,0.06327 0.0769,0.063 0.15422,-0.0011 0.0563,-0.04674 0.10239,-0.05377 0.10239,-0.01562 0,0.09619 0.19059,0.08763 0.20619,-0.0093 0.0329,-0.20418 0.0434,-3.106533 0.0115,-3.183791 -0.02,-0.04838 -0.0853,-0.09923 -0.14514,-0.112996 -0.70629,-0.162368 -0.74641,-0.165439 -0.96709,-0.07403 -0.12506,0.0518 -0.51076,0.08713 -0.91288,0.08361 -0.76529,-0.0067 -1.45441,-0.196151 -2.02596,-0.556956 -0.49428,-0.312026 -1.60741,-1.490699 -1.41487,-1.498184 0.0326,-0.0013 -10e-4,-0.04808 -0.0749,-0.104029 -0.0739,-0.05595 -0.11447,-0.133761 -0.0903,-0.172922 0.0242,-0.03916 0.008,-0.08325 -0.0363,-0.09799 -0.0442,-0.01473 -0.15442,-0.24687 -0.24495,-0.515862 -0.18575,-0.551958 -0.24114,-1.582526 -0.10802,-2.009749 0.0435,-0.1397 0.0959,-0.351971 0.11632,-0.471714 0.0205,-0.119743 0.0909,-0.299357 0.15661,-0.399143 0.11512,-0.174875 0.13064,-0.211692 0.15042,-0.356852 0.005,-0.03661 0.18869,-0.285692 0.40822,-0.553513 0.21952,-0.267821 0.39914,-0.515452 0.39914,-0.550291 0,-0.03484 0.0285,-0.06334 0.0634,-0.06334 0.0349,0 0.20427,-0.128773 0.37646,-0.286163 0.17218,-0.15739 0.33589,-0.272049 0.3638,-0.254799 0.0279,0.01725 0.0911,-0.01726 0.14043,-0.07669 0.0493,-0.05943 0.13603,-0.108058 0.19268,-0.108058 0.0813,0 0.10124,-0.126135 0.0947,-0.598715 -0.005,-0.329292 0.0102,-0.696685 0.0328,-0.816428 0.0226,-0.119743 0.0553,-0.299357 0.0725,-0.399143 0.0172,-0.09979 0.0378,-0.189593 0.0458,-0.199571 0.008,-0.01 0.0202,-0.04264 0.0271,-0.07257 0.007,-0.02994 0.0409,-0.136071 0.0755,-0.235857 0.109,-0.314684 0.0734,-0.573878 -0.10107,-0.736448 -0.22523,-0.209835 -0.38889,-0.580961 -0.48228,-1.093647 -0.0597,-0.327761 0.11671,-0.915782 0.38797,-1.293149 0.38325,-0.533175 1.09384,-0.87199 1.72775,-0.823804 0.33439,0.02542 0.62396,0.07079 0.66551,0.104281 0.0202,0.01627 0.0538,0.02847 0.29028,0.105422 0.0898,0.02922 0.16329,0.08742 0.16329,0.129333 0,0.04191 0.0172,0.059 0.0382,0.03796 0.021,-0.02103 0.15795,0.07141 0.30426,0.205431 0.14631,0.134017 0.28423,0.21926 0.30648,0.189428 0.0716,-0.09604 0.24236,-0.119351 1.08348,-0.147957 0.65285,-0.0222 0.89289,-0.0023 1.14866,0.09541 l 0.32333,0.123482 0.22905,-0.207732 c 0.12598,-0.114253 0.25356,-0.24039 0.28352,-0.280305 0.0363,-0.04838 0.0552,-0.04838 0.0567,0 0.001,0.04 0.0262,0.03551 0.0555,-0.01 0.10734,-0.166206 0.58751,-0.300473 1.07702,-0.301162 0.27517,-3.87e-4 0.53295,0.02248 0.57287,0.05082 0.0399,0.02834 0.12156,0.04842 0.18143,0.04464 0.0599,-0.0038 0.12645,0.01764 0.14796,0.04761 0.0215,0.02997 0.15214,-0.01594 0.29029,-0.102024 0.13815,-0.08609 0.29486,-0.164198 0.34826,-0.173581 0.0534,-0.0094 0.16514,-0.07668 0.24832,-0.149548 0.0832,-0.07287 0.12918,-0.09456 0.10219,-0.04821 -0.027,0.04635 0.088,0.01804 0.25558,-0.06291 0.16756,-0.08095 0.34401,-0.152965 0.39213,-0.160027 0.0481,-0.0071 0.13976,-0.05623 0.20366,-0.109259 0.0639,-0.05303 0.11618,-0.07209 0.11618,-0.04236 0,0.02973 0.0438,0.01769 0.0974,-0.02677 0.0536,-0.04445 0.11535,-0.06287 0.1373,-0.04092 0.022,0.02195 0.15773,-0.0093 0.30175,-0.0695 0.14401,-0.06017 0.26184,-0.09818 0.26184,-0.08447 0,0.01372 0.12247,-0.0054 0.27214,-0.04248 0.14968,-0.03708 0.40139,-0.08489 0.55935,-0.106237 0.15796,-0.02135 0.30624,-0.05059 0.32951,-0.06497 0.0233,-0.01438 0.30224,-0.05243 0.61994,-0.08455 0.97494,-0.09856 2.12813,-0.068 3.22649,0.08552 0.1397,0.01953 0.37977,0.05188 0.53349,0.07191 0.15372,0.02002 0.30503,0.05219 0.33624,0.07148 0.0312,0.01929 0.18304,0.05511 0.33737,0.07958 0.15434,0.02448 0.34593,0.07941 0.42576,0.122071 0.0798,0.04266 0.14514,0.06671 0.14514,0.05344 0,-0.01327 0.17961,0.03702 0.39914,0.111759 0.21953,0.07474 0.41547,0.138314 0.43543,0.141288 0.14529,0.02165 0.77244,0.298318 0.81532,0.35968 0.0293,0.04196 0.0538,0.04781 0.0544,0.01298 6.1e-4,-0.03482 0.0534,-0.01993 0.11729,0.0331 0.0639,0.05303 0.15446,0.102038 0.20126,0.108906 0.0468,0.0069 0.24584,0.114436 0.44231,0.239038 0.19648,0.124603 0.398213,0.226551 0.448283,0.226551 0.0501,0 0.12433,0.05715 0.16501,0.127 0.0407,0.06985 0.0755,0.09434 0.0773,0.05443 0.002,-0.04805 0.0213,-0.04791 0.0566,4.12e-4 0.0293,0.04014 0.24926,0.217833 0.48874,0.394871 0.23949,0.177038 0.44639,0.348506 0.45977,0.38104 0.0134,0.03253 0.0519,0.04215 0.0855,0.02136 0.0336,-0.02079 0.082,0.028 0.10755,0.108405 0.0255,0.08041 0.0806,0.146196 0.12251,0.146196 0.093,0 1.07525,1.006259 1.07525,1.101566 0,0.03748 0.0377,0.04484 0.0838,0.01636 0.0497,-0.03069 0.0642,-0.02004 0.0356,0.02615 -0.0265,0.04286 -0.005,0.121388 0.0469,0.174499 0.16979,0.172487 0.77713,1.073423 0.77713,1.152805 0,0.04245 0.0335,0.0565 0.0744,0.03122 0.0409,-0.02528 0.066,-0.01904 0.0558,0.01386 -0.0165,0.05322 0.20136,0.571747 0.38303,0.911552 0.0371,0.06931 0.0674,0.177372 0.0674,0.240141 0,0.06779 0.034,0.0931 0.0838,0.06234 0.0527,-0.0326 0.064,-0.01985 0.0305,0.03439 -0.0293,0.0474 0.0147,0.20136 0.0978,0.342145 0.0831,0.140784 0.11327,0.232635 0.0671,0.204113 -0.0575,-0.03554 -0.0639,-0.01978 -0.0203,0.05007 0.035,0.05606 0.0714,0.134584 0.0809,0.174498 0.01,0.03991 0.0507,0.2032 0.0915,0.362858 0.33698,1.319051 0.3528,2.733742 0.0465,4.160511 -0.0964,0.448867 -0.41834,1.293984 -0.66203,1.737636 -0.0937,0.170582 -0.13399,0.287671 -0.0895,0.260198 0.0444,-0.02747 0.0181,0.03604 -0.0586,0.141142 -0.0767,0.105102 -0.16582,0.19212 -0.19811,0.193375 -0.0323,0.0013 -0.0406,0.03151 -0.0186,0.06725 0.0221,0.03573 -0.0107,0.08449 -0.0729,0.108345 -0.0622,0.02386 -0.0971,0.06923 -0.0775,0.100819 0.0195,0.03159 -0.0596,0.166335 -0.17578,0.299428 -0.1162,0.133093 -0.19037,0.275807 -0.16483,0.317142 0.027,0.04365 0.0111,0.05331 -0.0378,0.02305 -0.0474,-0.02931 -0.10376,-0.0014 -0.12879,0.06385 -0.0245,0.06377 -0.21607,0.291693 -0.42578,0.50649 -0.21359,0.218775 -0.39804,0.481 -0.41937,0.59622 -0.0209,0.113125 -0.0577,0.27916 -0.0817,0.368967 -0.024,0.08981 -0.0575,0.220436 -0.0745,0.290286 -0.017,0.06985 -0.0841,0.3309 -0.14922,0.580112 -0.15524,0.594242 -0.18983,0.739262 -0.23598,0.98923 -0.0374,0.202582 -0.0309,0.207736 0.22506,0.177858 0.14496,-0.01692 0.26356,-0.0027 0.26356,0.03151 0,0.03426 0.0249,0.04689 0.0553,0.02808 0.0581,-0.03587 0.37049,0.108091 0.37064,0.170779 4e-5,0.01996 0.0211,0.09106 0.0468,0.158008 0.0257,0.06695 0.036,0.197576 0.0228,0.290286 l -0.0239,0.168563 -11.902273,0.01836 c -11.27648,0.01739 -11.90635,0.01167 -11.98012,-0.108857 z m 12.92825,-0.777224 c 0.0975,-0.0107 0.17728,0.0127 0.17728,0.05202 0,0.04277 0.0386,0.03945 0.0961,-0.0083 0.0701,-0.05822 0.1191,-0.0567 0.18143,0.0056 0.0551,0.05507 0.0854,0.058 0.0854,0.0083 0,-0.08333 0.2992,-0.0724 0.44249,0.01616 0.056,0.03458 0.0691,0.02388 0.0361,-0.02944 -0.0285,-0.04608 -0.0172,-0.08378 0.0251,-0.08378 0.0423,0 0.0794,0.04082 0.0826,0.09072 0.005,0.07257 0.0131,0.07257 0.0423,0 0.0201,-0.04989 0.0685,-0.09072 0.10741,-0.09072 0.0389,0 0.0509,0.03228 0.0265,0.07174 -0.0254,0.04114 0.004,0.05331 0.0683,0.02852 0.0666,-0.02554 0.11514,-0.136509 0.11877,-0.271312 0.0156,-0.578144 0.003,-1.802975 -0.0184,-1.822846 -0.0132,-0.01217 -0.33883,-0.04165 -0.72354,-0.06551 l -0.69946,-0.04337 -0.0563,0.343817 c -0.09,0.550143 -0.17948,0.999727 -0.23451,1.178389 -0.0694,0.225234 -0.0726,0.724547 -0.004,0.682393 0.0382,-0.02362 0.14925,-0.0517 0.24676,-0.0624 z m -2.92338,-0.570481 c 0.11073,-0.01647 0.217,-0.0046 0.23614,0.02638 0.0191,0.03098 0.0918,0.0454 0.16152,0.03205 0.0697,-0.01335 0.21333,-0.02677 0.31919,-0.02982 0.14626,-0.0042 0.21069,-0.05782 0.26836,-0.223267 0.0417,-0.119743 0.0531,-0.218214 0.0252,-0.218826 -0.0279,-6.11e-4 -0.0126,-0.0253 0.0338,-0.05486 0.14276,-0.09082 0.29645,-1.233974 0.30909,-2.299046 0.007,-0.556843 0.0405,-1.0467 0.0752,-1.088571 0.0347,-0.04187 0.0578,-0.09956 0.0512,-0.128204 -0.028,-0.121617 0.25311,-0.34257 0.49303,-0.38758 0.54503,-0.102249 0.92757,0.216878 0.98244,0.819583 0.0295,0.323707 0.0711,0.424307 0.21489,0.518823 0.14867,0.09775 0.16748,0.09914 0.11307,0.0084 -0.0522,-0.0871 -0.0443,-0.0927 0.0394,-0.02804 0.12732,0.09833 0.20049,0.105764 1.1311,0.114846 0.4049,0.004 0.79679,-0.01798 0.87086,-0.04873 0.0741,-0.03075 0.25789,-0.06676 0.40848,-0.08002 0.15059,-0.01326 0.31387,-0.04913 0.36286,-0.0797 0.049,-0.03057 0.14794,-0.06476 0.21992,-0.07597 0.072,-0.01121 0.2271,-0.07014 0.34471,-0.130963 0.11762,-0.06082 0.21385,-0.08836 0.21385,-0.06119 0,0.02717 0.0572,-0.0021 0.127,-0.06499 0.0698,-0.06291 0.17198,-0.125126 0.22695,-0.138248 0.055,-0.01312 0.24619,-0.154486 0.42493,-0.314143 0.27511,-0.24574 0.37671,-0.291442 0.66205,-0.297819 0.65059,-0.01454 0.99257,0.537149 0.6655,1.073599 -0.0806,0.132121 -0.14766,0.207562 -0.14914,0.167648 -10e-4,-0.03991 -0.0588,-0.0057 -0.12727,0.0761 -0.0685,0.08177 -0.17765,0.168985 -0.24252,0.193812 -0.11464,0.04388 -0.17286,0.419516 -0.065,0.419516 0.16926,0 0.43802,0.367292 0.80801,1.10425 0.0344,0.0685 0.0813,0.313424 0.10432,0.544286 0.0654,0.656374 0.10292,0.794073 0.18275,0.669964 0.0563,-0.08757 0.0782,-0.08867 0.13109,-0.0066 0.0349,0.05415 0.0811,0.07005 0.10252,0.03532 0.0215,-0.03473 0.197,-0.05493 0.39007,-0.04489 0.52304,0.02719 0.91657,0.03778 1.053733,0.02836 0.13869,-0.0095 0.21059,-0.189844 0.3289,-0.82482 0.0204,-0.109765 0.0681,-0.199572 0.1058,-0.199572 0.0377,0 0.0514,-0.02787 0.0303,-0.06194 -0.0211,-0.03407 -0.009,-0.15653 0.0278,-0.272143 0.11617,-0.369753 0.24436,-0.857972 0.27292,-1.039477 0.0375,-0.238604 0.26222,-0.550874 0.7087,-0.985015 0.38981,-0.379041 0.86939,-1.006835 1.05332,-1.378857 0.0592,-0.119743 0.12689,-0.234043 0.15043,-0.254 0.0683,-0.05792 0.47832,-1.195344 0.53297,-1.478545 0.009,-0.04496 0.0571,-0.272237 0.10752,-0.505066 0.095,-0.4383 0.0782,-2.447063 -0.0234,-2.806103 -0.0282,-0.09979 -0.0686,-0.2794 -0.0896,-0.399143 -0.021,-0.119743 -0.16388,-0.519793 -0.3175,-0.889 -0.15362,-0.369207 -0.26385,-0.671286 -0.24495,-0.671286 0.0189,0 -4e-5,-0.04082 -0.0421,-0.09071 -0.19168,-0.227433 -0.44887,-0.669233 -0.45768,-0.786217 -0.005,-0.07096 -0.0274,-0.118312 -0.0491,-0.105233 -0.0216,0.01308 -0.10209,-0.05987 -0.17876,-0.162116 -0.0846,-0.112766 -0.0988,-0.162253 -0.0363,-0.125795 0.0567,0.03306 0.0215,-0.02208 -0.0783,-0.122532 -0.0998,-0.100448 -0.41652,-0.424197 -0.70386,-0.719442 -0.56335,-0.57885 -1.03785,-1.012322 -1.03785,-0.948112 0,0.02195 -0.0514,-0.02349 -0.11424,-0.100968 -0.0628,-0.07748 -0.094,-0.09189 -0.0692,-0.03201 0.0248,0.05987 -0.009,0.03538 -0.076,-0.05443 -0.0666,-0.08981 -0.1671,-0.163286 -0.22335,-0.163286 -0.0563,0 -0.12101,-0.0488 -0.1439,-0.10844 -0.0229,-0.05964 -0.0709,-0.09037 -0.10658,-0.06829 -0.0357,0.02208 -0.065,0.0056 -0.065,-0.0367 0,-0.04227 -0.0466,-0.07685 -0.10367,-0.07685 -0.057,0 -0.14683,-0.0412 -0.19957,-0.09155 -0.13685,-0.130648 -1.17265,-0.59859 -1.72876,-0.780998 -0.25944,-0.0851 -0.5207,-0.173863 -0.58057,-0.19725 -0.0599,-0.02339 -0.13335,-0.04942 -0.16328,-0.05786 -0.0299,-0.0084 -0.0626,-0.02163 -0.0726,-0.02931 -0.01,-0.0077 -0.13044,-0.02849 -0.26769,-0.04624 -0.13724,-0.01775 -0.36584,-0.06126 -0.508,-0.09669 -0.14215,-0.03543 -0.30744,-0.0666 -0.36731,-0.06928 -0.0599,-0.0027 -0.22316,-0.02458 -0.36286,-0.04869 -0.36912,-0.0637 -2.23609,-0.0659 -2.57629,-0.003 -0.31481,0.05817 -0.48735,0.09547 -0.54428,0.117667 -0.02,0.0078 -0.0663,0.0084 -0.103,0.0015 -0.0367,-0.007 -0.0288,0.03298 0.0175,0.0888 0.0463,0.05582 0.0654,0.120329 0.0424,0.143358 -0.023,0.02303 0.0344,0.08212 0.12763,0.131312 0.29231,0.154243 1.37356,1.251304 1.53275,1.555177 0.12668,0.241786 0.23342,0.750007 0.13736,0.653943 -0.016,-0.01597 -0.11003,0.06721 -0.20901,0.184847 -0.099,0.117636 -0.20898,0.195958 -0.24443,0.174048 -0.0354,-0.02191 -0.12275,-0.0086 -0.19399,0.02949 -0.0897,0.04803 -0.17151,0.03862 -0.26619,-0.0306 -0.0752,-0.05496 -0.16153,-0.08456 -0.19193,-0.06577 -0.0774,0.04782 -0.44145,-0.399175 -0.39126,-0.480378 0.0226,-0.03654 -0.006,-0.06643 -0.0643,-0.06643 -0.10314,0 -0.22959,-0.195281 -0.2032,-0.313822 0.007,-0.0329 -0.0179,-0.04052 -0.0561,-0.01693 -0.0382,0.02359 -0.11246,-0.01695 -0.16508,-0.0901 -0.0526,-0.07315 -0.1549,-0.155105 -0.22728,-0.18213 -0.0724,-0.02703 -0.11272,-0.07969 -0.0896,-0.117033 0.0231,-0.03734 -0.032,-0.07917 -0.1224,-0.09295 -0.0904,-0.01378 -0.15539,-0.06753 -0.14442,-0.119439 0.011,-0.05191 -0.0109,-0.07533 -0.0486,-0.05204 -0.0377,0.02329 -0.11357,-0.0027 -0.16863,-0.05777 -0.0551,-0.05506 -0.20466,-0.154172 -0.33242,-0.220245 -0.12777,-0.06607 -0.23231,-0.153877 -0.23231,-0.195122 0,-0.04125 -0.0312,-0.0557 -0.0694,-0.03211 -0.0382,0.02358 -0.19328,-0.0098 -0.34471,-0.07417 -0.41761,-0.177533 -0.51809,-0.182558 -0.75611,-0.03781 -0.26198,0.159322 -0.25595,0.143993 -0.14111,0.358575 0.068,0.127025 0.0693,0.157965 0.005,0.118242 -0.0648,-0.04003 -0.0684,-0.01903 -0.0143,0.08204 0.18701,0.349431 -0.0582,1.339964 -0.40883,1.651235 -0.0847,0.07518 -0.13317,0.173155 -0.10776,0.217714 0.0254,0.04456 0.0189,0.05622 -0.0145,0.02592 -0.0334,-0.0303 -0.13658,0.01621 -0.22935,0.103364 -0.0928,0.08715 -0.16867,0.135287 -0.16867,0.106968 0,-0.02832 -0.0735,-0.01016 -0.16328,0.04035 -0.0898,0.05051 -0.25229,0.0944 -0.36107,0.09753 -0.10878,0.0031 -0.21811,0.02601 -0.24295,0.05085 -0.0662,0.06623 -0.2548,-0.02138 -0.20822,-0.09675 0.0218,-0.03527 -0.005,-0.04699 -0.0597,-0.02603 -0.10147,0.03894 -0.65839,-0.353995 -0.59359,-0.418797 0.0196,-0.01964 -0.0121,-0.07542 -0.0706,-0.123938 -0.13113,-0.108833 -0.0705,-0.295321 0.096,-0.295321 0.0676,0 0.15389,-0.02993 0.19181,-0.06651 0.0379,-0.03658 0.13426,-0.0774 0.21409,-0.09071 0.0798,-0.01331 0.19744,-0.08076 0.26136,-0.149888 0.0639,-0.06912 0.1374,-0.109945 0.16329,-0.09071 0.0259,0.01923 0.031,0.01348 0.0114,-0.01278 -0.0196,-0.02626 -0.004,-0.08547 0.0339,-0.131577 0.0383,-0.0461 0.0826,-0.196066 0.0984,-0.333249 0.0854,-0.737431 -0.71717,-0.835281 -1.08095,-0.131795 -0.0542,0.104798 -0.0781,0.211011 -0.053,0.236028 0.025,0.02502 0.0119,0.04549 -0.0292,0.04549 -0.0411,0 -0.0752,0.07348 -0.0759,0.163286 -0.003,0.41098 -0.022,0.476536 -0.13338,0.460185 -0.0631,-0.0093 -0.14421,-0.06352 -0.18032,-0.120578 -0.0361,-0.05706 -0.0662,-0.07797 -0.0668,-0.04646 -6.1e-4,0.03151 -0.0467,0.01518 -0.10235,-0.03628 -0.0557,-0.05147 -0.0833,-0.123114 -0.0614,-0.159217 0.022,-0.03621 -0.001,-0.04018 -0.052,-0.0088 -0.0517,0.03196 -0.11533,0.01888 -0.14548,-0.0299 -0.0295,-0.04768 -0.0993,-0.09583 -0.15517,-0.107004 -0.0559,-0.01117 -0.19957,-0.06365 -0.31931,-0.116632 -0.11974,-0.05298 -0.33201,-0.109615 -0.47171,-0.12586 -0.46867,-0.0545 -1.41441,-0.06348 -1.48772,-0.01413 -0.0399,0.02687 -0.17054,0.0722 -0.29028,0.100744 -0.29891,0.07124 -0.69746,0.263961 -0.86558,0.418555 -0.16515,0.151865 -0.19685,0.132347 -0.22491,-0.138488 -0.0841,-0.811588 -0.68909,-1.297748 -1.13545,-0.912419 -0.18275,0.157765 -0.13232,0.661509 0.0897,0.89617 0.18039,0.19064 0.38365,0.303333 0.63036,0.349489 0.0299,0.0056 0.0998,0.03888 0.15513,0.07396 0.0823,0.05215 0.0729,0.09362 -0.0519,0.227594 -0.0839,0.0901 -0.13778,0.187831 -0.11964,0.217178 0.0181,0.02935 -0.0154,0.09352 -0.0746,0.142606 -0.0994,0.0825 -0.22084,0.430652 -0.30366,0.870626 -0.0188,0.09979 -0.0412,0.605972 -0.0498,1.124857 -0.0198,1.19941 -0.12853,1.445072 -0.87135,1.969654 -0.55806,0.394103 -1.20609,1.015048 -1.20609,1.155678 0,0.0506 -0.038,0.104658 -0.0844,0.120126 -0.0464,0.01547 -0.0933,0.07534 -0.1041,0.133048 -0.0109,0.05771 -0.0862,0.274098 -0.16741,0.480867 -0.11701,0.297858 -0.14366,0.510672 -0.12828,1.024592 0.0167,0.558064 0.0513,0.713322 0.24763,1.11177 0.23271,0.472217 0.72702,1.041607 0.97167,1.119257 0.0746,0.02369 0.13572,0.07897 0.13572,0.122851 0,0.04388 0.0206,0.05915 0.0458,0.03395 0.0252,-0.02521 0.10896,-0.01204 0.18614,0.02926 0.20161,0.107899 0.40165,0.1449 0.87474,0.161795 0.22951,0.0082 0.41729,-0.01296 0.41729,-0.04702 0,-0.03406 0.0408,-0.04794 0.0907,-0.03084 0.0499,0.01709 0.22891,-0.02775 0.39781,-0.09966 0.28563,-0.121597 0.32623,-0.122622 0.58058,-0.01464 0.36435,0.154681 0.54823,0.185825 1.10804,0.18767 0.8086,0.0027 1.20654,-0.159322 1.76821,-0.719765 0.5098,-0.50869 0.71611,-1.002424 0.73814,-1.766486 0.0149,-0.515533 -0.0147,-0.707506 -0.18116,-1.178037 -0.10941,-0.309176 -0.17932,-0.581749 -0.15535,-0.605719 0.024,-0.02397 0.0447,-0.06535 0.0462,-0.09196 0.016,-0.300379 0.56044,-0.585775 0.93715,-0.491227 0.21593,0.0542 0.64372,0.431794 0.57126,0.504247 -0.0261,0.0261 -0.004,0.04746 0.0493,0.04746 0.0532,0 0.0785,0.01825 0.0562,0.04056 -0.0223,0.02231 0.0235,0.210087 0.10172,0.417285 0.0782,0.207199 0.14913,0.409382 0.15751,0.449296 0.008,0.03991 0.0438,0.118439 0.0788,0.174499 0.0474,0.07594 0.0376,0.08626 -0.0383,0.0405 -0.0806,-0.04858 -0.0793,-0.03364 0.006,0.07145 0.0594,0.07308 0.0986,0.204537 0.0871,0.292122 -0.0328,0.250377 0.18286,0.193101 0.24294,-0.06452 0.0287,-0.123069 0.0624,-0.256419 0.075,-0.296334 0.0125,-0.03991 0.0392,-0.146172 0.0592,-0.236129 0.02,-0.08996 0.0516,-0.188198 0.0702,-0.218313 0.0186,-0.03011 0.0428,-0.217771 0.0539,-0.417013 0.011,-0.199242 0.0631,-0.43018 0.11567,-0.513195 0.0526,-0.08301 0.0768,-0.16984 0.0537,-0.192945 -0.0231,-0.02311 0.0258,-0.06352 0.10861,-0.08981 0.0828,-0.02629 0.15061,-0.07282 0.15061,-0.103388 0,-0.03057 0.0408,-0.05813 0.0907,-0.06125 0.0499,-0.0031 0.19684,-0.0206 0.32657,-0.03886 0.13562,-0.01909 0.23585,-0.0013 0.23585,0.04195 0,0.04133 0.02,0.05519 0.0444,0.03079 0.0685,-0.06851 0.39209,0.351254 0.46396,0.60186 0.0594,0.207289 0.0409,0.372652 -0.17736,1.577197 -0.0639,0.352829 -0.30581,0.932527 -0.64353,1.542252 -0.16581,0.299357 -0.29314,0.571206 -0.28294,0.604109 0.0102,0.0329 -0.009,0.04284 -0.0425,0.02209 -0.0336,-0.02075 -0.12142,0.06446 -0.19521,0.189372 -0.16066,0.271976 -1.17397,1.2896 -1.22917,1.234401 -0.0213,-0.02131 -0.0593,0.01473 -0.0843,0.08008 -0.0251,0.06535 -0.0714,0.102873 -0.10296,0.08337 -0.0316,-0.0195 -0.0769,0.01542 -0.10074,0.07759 -0.0239,0.06217 -0.0715,0.09565 -0.10592,0.07439 -0.0344,-0.02126 -0.13642,0.04 -0.22672,0.136128 l -0.1642,0.174777 0.20131,0.186564 c 0.11071,0.102611 0.21652,0.171344 0.23513,0.152741 0.0186,-0.0186 0.1686,0.108026 0.33334,0.281398 0.40713,0.428479 0.47966,0.526358 0.4282,0.577823 -0.0242,0.02421 -0.006,0.04402 0.0406,0.04402 0.0466,0 0.0847,0.06724 0.0847,0.149426 0,0.08218 0.0245,0.13447 0.0544,0.11619 0.0562,-0.0343 0.0911,0.22926 0.11387,0.859241 0.0104,0.288159 0.0415,0.370642 0.15088,0.400671 0.14481,0.03975 0.73773,0.02624 1.07959,-0.02459 z m -9.52677,-6.222758 c -0.20456,-0.221853 -0.24453,-0.318177 -0.23682,-0.570801 0.006,-0.182846 0.42333,-0.61352 0.53073,-0.547145 0.0324,0.02003 0.0804,0.0016 0.10668,-0.04086 0.0332,-0.05374 0.079,-0.05139 0.15016,0.0077 0.0563,0.04674 0.1024,0.06281 0.1024,0.03571 0,-0.107189 0.42792,0.211294 0.50181,0.373482 0.13023,0.285821 0.0904,0.490521 -0.13783,0.709225 -0.30714,0.294259 -0.76245,0.308893 -1.01713,0.03269 z m 4.00598,0.07765 c -0.13169,-0.08128 -0.2213,-0.177149 -0.19912,-0.21304 0.0222,-0.03589 0.003,-0.07757 -0.0418,-0.09262 -0.12268,-0.0409 -0.099,-0.406583 0.036,-0.555754 0.0649,-0.07177 0.0935,-0.157563 0.0635,-0.190659 -0.03,-0.0331 -0.0138,-0.03668 0.0361,-0.008 0.0499,0.02871 0.0907,0.02392 0.0907,-0.01064 0,-0.03457 0.0898,-0.09581 0.19958,-0.13611 0.23352,-0.08573 0.81642,0.08728 0.81642,0.242328 0,0.05126 0.0289,0.0932 0.0641,0.0932 0.10473,0 0.14936,0.29201 0.0747,0.48847 -0.0939,0.246986 -0.41348,0.486643 -0.6811,0.510772 -0.12519,0.01129 -0.32266,-0.04376 -0.45912,-0.127979 z m 1.6546,-4.652596 c 0,-0.04903 -0.0222,-0.06692 -0.0494,-0.03975 -0.0272,0.02717 -0.14147,-0.03881 -0.254,-0.146625 -0.2935,-0.281185 -0.28026,-0.615728 0.0369,-0.932897 0.23305,-0.233057 0.38444,-0.266135 0.8553,-0.186893 0.21227,0.03572 0.55797,0.650798 0.43493,0.773836 -0.0242,0.02422 -0.0481,0.07397 -0.0531,0.110563 -0.005,0.03659 -0.0131,0.09679 -0.0181,0.13378 -0.0247,0.183384 -0.9525,0.463888 -0.9525,0.287982 z"
       id="path1" /></g></svg>
